<svg xmlns="http://www.w3.org/2000/svg" width="239" height="239" viewBox="0 0 239 239">
  <g id="Icons" transform="translate(1 1)">
    <g id="Rounded" transform="translate(-1 -1)">
      <g id="Action">
        <g id="_-Round-_-Action-_-add_shopping_cart" data-name="-Round-/-Action-/-add_shopping_cart" transform="translate(0 0)">
          <g id="Group_5" data-name="Group 5">
            <path id="Path" d="M0,0H239V239H0Z" fill="none" fill-rule="evenodd"/>
            <path id="_Icon-Color" data-name="🔹Icon-Color" d="M110.542,80.667a9.988,9.988,0,0,0,9.958-9.958V50.792h19.917a9.958,9.958,0,0,0,0-19.917H120.5V10.958a9.958,9.958,0,1,0-19.917,0V30.875H80.667a9.958,9.958,0,1,0,0,19.917h19.917V70.708A9.988,9.988,0,0,0,110.542,80.667ZM60.75,170.292a19.917,19.917,0,1,0,19.917,19.917A19.89,19.89,0,0,0,60.75,170.292Zm99.583,0a19.917,19.917,0,1,0,19.917,19.917A19.89,19.89,0,0,0,160.333,170.292ZM71.7,120.5h74.19a19.822,19.822,0,0,0,17.427-10.257L196.98,49.2a9.919,9.919,0,1,0-17.327-9.66l-33.759,61.045H75.986L36.252,16.635a9.885,9.885,0,0,0-8.962-5.676H10.958a9.958,9.958,0,0,0,0,19.917h9.958l35.85,75.584-13.444,24.3A19.953,19.953,0,0,0,60.75,160.333H170.292a9.958,9.958,0,0,0,0-19.917H60.75Z" transform="translate(8.958 8.958)" fill="#fff" fill-rule="evenodd"/>
          </g>
        </g>
      </g>
    </g>
  </g>
</svg>
