<svg xmlns="http://www.w3.org/2000/svg" width="213.234" height="213.24" viewBox="0 0 213.234 213.24">
  <g id="cart-plus" transform="translate(0 -1)">
    <path id="Path_150" data-name="Path 150" d="M48.648,12.108a7.108,7.108,0,1,0-14.216,0V33.432H13.108a7.108,7.108,0,0,0,0,14.216H34.432V68.972a7.108,7.108,0,0,0,14.216,0V47.648H69.972a7.108,7.108,0,1,0,0-14.216H48.648Z" transform="translate(79.296 52.864)" fill="#fff"/>
    <path id="Path_151" data-name="Path 151" d="M7.108,1a7.108,7.108,0,1,0,0,14.216h15.78l5.7,22.845,21.3,113.515a7.108,7.108,0,0,0,6.98,5.8H71.08a28.432,28.432,0,1,0,28.432,28.432A28.432,28.432,0,0,0,71.08,157.376h99.512a28.432,28.432,0,1,0,28.432,28.432,28.432,28.432,0,0,0-28.432-28.432h14.216a7.108,7.108,0,0,0,6.98-5.8L213.112,37.848a7.108,7.108,0,0,0-6.98-8.416H41.084L35.327,6.388A7.108,7.108,0,0,0,28.432,1ZM62.764,143.16,44.1,43.648H197.574L178.909,143.16ZM85.3,185.808A14.216,14.216,0,1,1,71.08,171.592,14.216,14.216,0,0,1,85.3,185.808Zm99.512,0a14.216,14.216,0,1,1-14.216-14.216A14.216,14.216,0,0,1,184.808,185.808Z" fill="#fff"/>
  </g>
</svg>
