<svg xmlns="http://www.w3.org/2000/svg" width="62.653" height="62.654" viewBox="0 0 62.653 62.654">
  <g id="Page-1" transform="translate(0 0)">
    <g id="Dribbble-Light-Preview">
      <g id="icons">
        <path id="shopping_cart-_1135_" data-name="shopping_cart-[#1135]" d="M216.775,3015.388h-42.9a3.131,3.131,0,0,1-3.1-3.574l3.581-25.062a3.131,3.131,0,0,1,3.1-2.69h2.2v6.266a3.133,3.133,0,1,0,6.265,0v-6.266h18.8v6.266a3.133,3.133,0,1,0,6.265,0v-6.266h2.205a3.131,3.131,0,0,1,3.1,2.69l3.581,25.062a3.131,3.131,0,0,1-3.1,3.574Zm-30.848-40.725a9.41,9.41,0,0,1,9.4-9.4c5.185,0,9.4,3.133,9.4,9.4v3.132h-18.8Zm40.662,39.839-4.477-31.327a6.263,6.263,0,0,0-6.2-5.38h-4.921v-3.132c0-9.4-7.027-15.663-15.663-15.663a15.683,15.683,0,0,0-15.663,15.663v3.132H175.7c-3.117,0-6.72,2.293-7.161,5.38l-4.473,31.327a6.266,6.266,0,0,0,6.2,7.151h50.12a6.266,6.266,0,0,0,6.2-7.151Z" transform="translate(-164 -2959)" fill="#8a72a3" fill-rule="evenodd"/>
      </g>
    </g>
  </g>
</svg>
