<svg xmlns="http://www.w3.org/2000/svg" width="495.5" height="566.286" viewBox="0 0 495.5 566.286">
  <path id="trash3-fill" d="M354.929,53.089V88.482H478.8a17.7,17.7,0,0,1,0,35.393H459.762l-30.19,377.288A70.786,70.786,0,0,1,359,566.286H138.5a70.789,70.789,0,0,1-70.575-65.137L37.738,123.875H18.7a17.7,17.7,0,1,1,0-35.393H142.571V53.089A53.089,53.089,0,0,1,195.661,0H301.839a53.089,53.089,0,0,1,53.089,53.089Zm-176.964,0V88.482H319.536V53.089a17.7,17.7,0,0,0-17.7-17.7H195.661a17.7,17.7,0,0,0-17.7,17.7Zm-53.089,124.9,17.7,300.839a17.695,17.695,0,1,0,35.326-2.124L160.2,175.867a17.695,17.695,0,1,0-35.326,2.124ZM355.99,159.3A17.7,17.7,0,0,0,337.3,175.938l-17.7,300.839a17.7,17.7,0,0,0,35.322,2.053l17.7-300.839A17.7,17.7,0,0,0,355.99,159.3Zm-107.24-.035a17.7,17.7,0,0,0-17.7,17.7V477.8a17.7,17.7,0,0,0,35.393,0V176.964A17.7,17.7,0,0,0,248.75,159.268Z" transform="translate(-1)" fill="#fff"/>
</svg>
