<?xml version="1.0" encoding="utf-8"?>
<!-- Generator: Adobe Illustrator 26.3.1, SVG Export Plug-In . SVG Version: 6.00 Build 0)  -->
<svg version="1.1" id="圖層_1" xmlns="http://www.w3.org/2000/svg" xmlns:xlink="http://www.w3.org/1999/xlink" x="0px" y="0px"
	 viewBox="0 0 252.4 269.1" style="enable-background:new 0 0 252.4 269.1;" xml:space="preserve">
<style type="text/css">
	.st0{fill:#8A72A3;}
	.st1{fill:#1C5D29;stroke:#1C5D29;stroke-width:0.529;stroke-miterlimit:4;}
	.st2{fill:#8A72A3;stroke:#8A72A3;stroke-width:0.529;stroke-miterlimit:4;}
	.st3{fill:#E78200;stroke:#E78200;stroke-width:0.529;stroke-miterlimit:4;}
</style>
<g id="svgexport-5_1_" transform="translate(-41.915 -35.224)">
	<path id="_5SC6UGdOkYfkXeSNty3Vl" class="st0" d="M190,270.3l0.1-1.3l5.2-1.2c0.7-0.2,1.4-0.6,1.9-1.1c0.6-0.8,0.8-1.7,0.7-2.7l0,0
		c0-0.2,0.1-0.3,0.2-0.4c0.1-0.1,0.2-0.2,0.3-0.2l0,0c0.2-0.1,0.4,0,0.5,0.1c0.2,0.1,0.3,0.3,0.3,0.5l0,0l2.2,6.4
		c0.1,0.2,0.1,0.5,0.1,0.8c-0.1,0.2-0.3,0.3-0.5,0.4l0,0c-0.2,0-0.3,0-0.5,0c-0.2-0.1-0.3-0.2-0.4-0.3l0,0c-0.5-0.8-1.2-1.5-2-1.9
		c-0.9-0.3-1.8-0.4-2.8-0.1l0,0L190,270.3z M197.4,282.2L197.4,282.2l-13.4,3.1c-0.2,0.1-0.4,0.1-0.6,0c-0.1-0.1-0.2-0.2-0.3-0.4
		l0,0c0-0.2,0-0.3,0.1-0.5c0.1-0.2,0.2-0.3,0.4-0.4l0,0l1.2-0.5c0.2-0.1,0.4-0.3,0.5-0.5c0.1-0.3,0.2-0.6,0.2-0.9l0,0
		c0-0.3,0-0.9,0.1-1.7l0.1-3.1c0-1.2,0.1-2.5,0.1-3.9c0-1.4,0.1-2.8,0.2-4.1c0.1-1.4,0.1-2.7,0.1-3.9l0.1-3.1l0.1-1.8l0,0
		c0-0.3,0-0.6-0.2-0.9c-0.1-0.2-0.4-0.3-0.6-0.2l0,0l-1.3,0.1c-0.1,0-0.3-0.1-0.4-0.1c-0.1-0.1-0.2-0.2-0.2-0.4l0,0
		c-0.1-0.2,0-0.4,0.1-0.6c0.2-0.2,0.4-0.3,0.6-0.3l0,0l14.6-3.3c0.6-0.1,1.1-0.3,1.6-0.7c0.3-0.2,0.6-0.4,1-0.5l0,0
		c0.4-0.1,0.9,0.1,1,0.5c0,0,0,0.1,0,0.1l0,0l1.6,6.4c0.1,0.2,0.1,0.5,0.1,0.7c-0.1,0.2-0.2,0.3-0.4,0.4l0,0c-0.2,0.1-0.4,0.1-0.7,0
		c-0.3-0.2-0.5-0.4-0.6-0.6l0,0c-0.6-1.1-1.2-2.2-2-3.1c-0.5-0.6-1.1-1.1-1.9-1.3c-0.7-0.2-1.5-0.2-2.2,0l0,0l-3.6,0.8
		c0,0.4-0.1,1.1-0.1,2s-0.1,2.1-0.1,3.4c0,1.3-0.1,2.7-0.2,4.1c-0.1,1.5-0.1,2.9-0.1,4.4c0,1.5-0.1,2.8-0.1,4.1
		c0,1.3-0.1,2.4-0.1,3.2c0,0.9,0,1.5,0,1.8l0,0c0,0.3,0,0.7,0.2,1c0.1,0.2,0.3,0.4,0.6,0.4c0.4,0.1,0.7,0,1.1-0.1l0,0l2.4-0.6
		c0.9-0.2,1.8-0.6,2.5-1.2c0.8-0.7,1.4-1.5,1.9-2.4c0.7-1.3,1.2-2.7,1.6-4.1l0,0c0.2-0.6,0.4-0.9,0.7-1l0,0c0.4-0.1,0.7,0.2,0.8,0.7
		l0,0c0.2,1.1,0.3,2.3,0.2,3.4c0,0.9-0.2,1.8-0.5,2.6c-0.3,0.7-0.7,1.3-1.2,1.8c-0.6,0.5-1.2,0.8-1.9,0.9l0,0
		c-0.5,0.1-1,0.1-1.5,0.1C198.4,282,197.9,282.1,197.4,282.2L197.4,282.2z M220,271L220,271l-1.4-8.4c-0.1-0.8-0.3-1.5-0.7-2.1
		c-0.3-0.3-0.7-0.4-1.1-0.2l0,0c-0.5,0.3-0.9,0.8-1.1,1.4c-0.4,0.9-0.6,1.8-0.7,2.8c-0.1,1.4-0.1,2.7,0.1,4.1l0,0
		c0.1,0.7,0.2,1.3,0.3,1.8c0.1,0.5,0.2,0.9,0.3,1.4c0.1,0.3,0.2,0.6,0.3,0.9l0,0c0.1,0.3,0.3,0.5,0.6,0.7c0.2,0.2,0.4,0.4,0.6,0.7
		l0,0c0.3,0.6,0.1,1.2-0.5,2c-0.8,0.9-1.9,1.7-3,2.2l0,0c-0.9,0.5-1.6,0.5-2.1,0.1c-0.6-0.7-0.9-1.6-1-2.5l0,0l-1.5-9.2
		c0-0.6-0.2-1.2-0.5-1.8c-0.2-0.3-0.5-0.4-0.7-0.2l0,0c-0.2,0.1-0.4,0.3-0.5,0.5c-0.2,0.4-0.4,0.8-0.5,1.2l0,0
		c-0.1,0.2-0.1,0.3-0.3,0.5c-0.1,0.1-0.2,0.1-0.3,0.2l0,0c-0.2,0-0.3-0.1-0.3-0.2c-0.1-0.2-0.1-0.5-0.1-0.7l0,0
		c0-1.3,0.4-2.6,1.1-3.7c0.7-1.1,1.7-2.1,2.9-2.7l0,0c0.6-0.4,1.3-0.5,2-0.4c0.6,0.1,1.1,0.5,1.3,1.1l0,0c0.2,0.4,0.4,0.9,0.5,1.4
		c0.1,0.6,0.2,1.1,0.2,1.8c0.1,0.6,0.1,1.3,0.2,1.9c0.1,0.6,0.2,1.3,0.3,1.9l0,0l-0.4-0.1c-0.2-2-0.1-4,0.4-6c0.4-1.4,1-2.8,1.9-4
		c0.7-0.9,1.6-1.7,2.6-2.2l0,0c0.7-0.4,1.4-0.6,2.2-0.5c0.6,0.1,1.2,0.6,1.4,1.2l0,0c0.2,0.4,0.3,0.8,0.4,1.3
		c0.1,0.5,0.2,1.1,0.2,1.7c0.1,0.6,0.1,1.2,0.2,1.9c0.1,0.7,0.2,1.3,0.3,1.9l0,0l-0.5,0c-0.1-1.5-0.1-3.1,0.2-4.6
		c0.2-1.2,0.5-2.4,1-3.5c0.4-0.9,1-1.8,1.6-2.5c0.6-0.6,1.3-1.2,2-1.6l0,0c0.7-0.4,1.5-0.6,2.3-0.4c0.7,0.2,1.2,0.7,1.6,1.3
		c0.5,0.8,0.8,1.8,0.9,2.7l0,0l1.3,7.3c0.1,0.7,0.3,1.4,0.6,1.9c0.2,0.3,0.5,0.3,0.7,0.2l0,0c0.2-0.1,0.4-0.3,0.5-0.5
		c0.2-0.3,0.3-0.7,0.4-1.1l0,0c0.1-0.2,0.2-0.4,0.3-0.5c0.1-0.1,0.2-0.1,0.3-0.1l0,0c0.2,0,0.3,0.1,0.4,0.2c0.1,0.2,0.2,0.5,0.1,0.8
		l0,0c0,1.2-0.3,2.3-1,3.3c-0.7,1.1-1.8,2.1-3,2.6l0,0c-0.7,0.4-1.4,0.6-2.2,0.5c-0.6-0.1-1.1-0.5-1.4-1.1c-0.4-0.8-0.7-1.6-0.8-2.5
		l0,0l-1.2-7.1c0-0.8-0.3-1.5-0.7-2.1c-0.3-0.3-0.7-0.4-1.1-0.2l0,0c-0.5,0.3-0.9,0.8-1.1,1.4c-0.4,0.9-0.6,1.8-0.7,2.8
		c-0.1,1.4-0.1,2.7,0.1,4.1l0,0c0.1,0.7,0.2,1.3,0.3,1.8c0.1,0.5,0.2,0.9,0.3,1.4c0.1,0.3,0.2,0.6,0.3,0.9l0,0
		c0.1,0.3,0.3,0.5,0.6,0.7c0.2,0.2,0.4,0.4,0.6,0.7l0,0c0.3,0.6,0.1,1.2-0.5,2c-0.8,0.9-1.9,1.7-3,2.2l0,0c-0.5,0.3-1,0.4-1.6,0.4
		c-0.4-0.1-0.8-0.4-1-0.8C220.3,272.3,220.1,271.6,220,271z M235.6,231.4L235.6,231.4c0.7-0.7,1.7-1.1,2.6-1.1
		c0.7,0,1.4,0.3,1.8,0.9l0,0c0.4,0.4,0.6,1,0.5,1.6c-0.1,0.6-0.4,1.2-1,1.6l0,0c-0.4,0.3-0.8,0.5-1.2,0.6c-0.4,0.1-0.9,0.2-1.3,0.2
		c-0.4,0-0.8,0.1-1.2,0.2c-0.4,0.1-0.7,0.2-1,0.4l0,0c-0.2,0.2-0.3,0.4-0.4,0.6c-0.1,0.2-0.1,0.5,0,0.7c0,0.3,0.2,0.5,0.3,0.7l0,0
		c0.2,0.3,0.5,0.5,0.9,0.6c0.4,0.1,0.8,0.3,1.2,0.4c0.5,0.1,1,0.3,1.4,0.6c0.5,0.3,1,0.6,1.4,1.1c0.5,0.6,0.9,1.2,1.2,1.9l0,0
		l4.1,9.9c0.2,0.7,0.6,1.3,1,1.8c0.3,0.2,0.5,0.2,0.8,0.1l0,0c0.2-0.2,0.4-0.4,0.4-0.7c0.1-0.4,0.2-0.8,0.2-1.2l0,0
		c0-0.2,0.1-0.4,0.1-0.5c0.1-0.1,0.2-0.2,0.3-0.2l0,0c0.2,0,0.3,0,0.4,0.1c0.2,0.2,0.3,0.5,0.3,0.7l0,0c0.2,0.8,0.2,1.6,0,2.3
		c-0.2,0.8-0.5,1.6-0.9,2.3c-0.5,0.8-1.1,1.5-1.9,2.1l0,0c-0.6,0.5-1.3,0.9-2.1,0.9c-0.6,0-1.2-0.3-1.6-0.8c-0.6-0.7-1-1.5-1.3-2.3
		l0,0l-6.9-16.9c-0.7-1.6-1-3.3-0.6-5C233.5,233.6,234.3,232.3,235.6,231.4z M252.5,235.1l3.6,6.9c0.3,0.6,0.7,1.2,1.2,1.7
		c0.3,0.2,0.6,0.2,0.8,0l0,0c0.2-0.2,0.3-0.4,0.3-0.6c0.1-0.4,0.1-0.8,0-1.2l0,0c0-0.2,0-0.4,0.1-0.6c0-0.1,0.1-0.2,0.2-0.2l0,0
		c0.2-0.1,0.3,0,0.4,0.1c0.2,0.2,0.3,0.4,0.4,0.7l0,0c0.4,1.1,0.4,2.3,0.1,3.5c-0.3,1.3-1,2.5-2,3.4l0,0c-0.5,0.6-1.2,1-2,1.2
		c-0.6,0.1-1.3-0.2-1.7-0.6c-0.6-0.6-1.1-1.4-1.5-2.2l0,0l-3.6-7.1c-0.3-0.6-0.6-1.1-1.1-1.6c-0.3-0.2-0.6-0.2-0.8,0l0,0
		c-0.2,0.2-0.3,0.4-0.3,0.6c-0.1,0.4-0.1,0.9-0.1,1.3l0,0c0,0.2,0,0.3-0.1,0.5c-0.1,0.1-0.1,0.2-0.2,0.2l0,0c-0.1,0.1-0.3,0-0.4-0.1
		c-0.2-0.2-0.3-0.4-0.3-0.6l0,0c-0.4-1.2-0.4-2.5-0.1-3.8c0.3-1.3,0.9-2.4,1.8-3.3l0,0c0.5-0.5,1.1-0.9,1.8-1.1
		c0.7-0.1,1.3,0.1,1.8,0.6C251.5,233.5,252.1,234.2,252.5,235.1L252.5,235.1z M246.2,231.1L246.2,231.1c-0.5,0.6-1.3,1-2.1,1.1
		c-0.7,0.1-1.4-0.2-1.8-0.7l0,0c-0.5-0.5-0.8-1.1-0.9-1.7c-0.1-0.7-0.1-1.4,0.1-2.1c0.2-0.8,0.7-1.5,1.2-2.1l0,0
		c0.5-0.7,1.3-1.1,2.2-1.2c0.7,0,1.3,0.3,1.8,0.7l0,0c0.5,0.5,0.8,1.1,0.9,1.7c0.2,0.7,0.1,1.4-0.1,2.1
		C247.3,229.8,246.8,230.6,246.2,231.1L246.2,231.1z M265,215.9l5.9,7c0.4,0.6,1,1.1,1.6,1.4c0.3,0.1,0.6,0.1,0.7-0.1l0,0
		c0.1-0.2,0.2-0.4,0.2-0.7c0-0.4-0.1-0.8-0.2-1.2l0,0c0-0.2-0.1-0.4,0-0.6c0-0.1,0.1-0.2,0.2-0.3l0,0c0.1-0.1,0.3-0.1,0.4,0
		c0.2,0.2,0.4,0.4,0.5,0.6l0,0c0.5,1,0.8,2.2,0.7,3.3c-0.1,1.2-0.5,2.4-1.2,3.4l0,0c-0.4,0.7-1,1.1-1.7,1.3
		c-0.7,0.1-1.3-0.1-1.9-0.6l0,0c-0.2-0.2-0.5-0.4-0.7-0.6c-0.3-0.2-0.5-0.5-0.8-0.8c-0.3-0.3-0.6-0.6-0.9-1c-0.3-0.4-0.6-0.8-1-1.2
		l0,0l0.8,0.1c0.8,1.1,1.4,2.3,1.9,3.6c0.4,1.1,0.5,2.3,0.4,3.4c-0.1,1.1-0.5,2.2-1.2,3.1l0,0c-0.7,1.1-1.9,1.9-3.2,2
		c-1.5,0-3-0.6-4.1-1.7l0,0c-1-0.8-1.8-1.8-2.5-2.8c-0.7-1.1-1.3-2.3-1.6-3.5c-0.4-1.3-0.6-2.6-0.6-4c0-2.9,0.9-5.8,2.6-8.1l0,0
		c0.7-1,1.4-1.9,2.3-2.7c0.6-0.6,1.2-1.1,1.9-1.5c0.5-0.3,0.9-0.3,1.2-0.1l0,0c0.2,0.1,0.3,0.4,0.3,0.6c0,0.2,0,0.4,0,0.7
		C264.7,215.5,264.8,215.8,265,215.9L265,215.9z M265,231.8L265,231.8c0.5,0.5,1.2,0.9,2,1.1c0.4,0.1,0.8-0.1,1-0.4l0,0
		c0.2-0.4,0.3-0.8,0.3-1.3c-0.1-0.7-0.2-1.3-0.5-1.9c-0.3-0.8-0.7-1.6-1.2-2.4c-0.6-1-1.2-1.9-1.9-2.8c-0.7-1-1.6-2-2.5-3l0,0
		c-0.4-0.5-0.9-1-1.5-1.3c-0.4-0.2-0.8-0.1-1,0.3l0,0c-0.3,0.5-0.5,1.2-0.4,1.8c0.1,0.8,0.2,1.6,0.5,2.4c0.4,0.9,0.8,1.8,1.3,2.6
		c0.5,0.9,1.2,1.8,1.8,2.6C263.5,230.4,264.3,231.1,265,231.8z"/>
	<g id="Group_4" transform="translate(181.082 98.817) rotate(30.651)">
		<g id="Group_1" transform="translate(0 0)">
			<path id="Path_3" class="st1" d="M17.1,113.9c0.1,0,0.1-0.1,0.1-0.1c0-0.1-0.1-0.1-0.1-0.1c-0.1,0-0.1,0.1-0.1,0.1
				C17,113.9,17.1,113.9,17.1,113.9z"/>
			<path id="Path_4" class="st1" d="M19.6,76.4c-0.7-0.9-0.4-2.8-0.4-3.9c0-0.6,0.1-1.2,0.1-1.8c0-0.3,0.5-2.5,1.1-1.5
				c0.5,0.8,0.2,2.7,0,3.6c-0.2,1.3-0.6,2.5-1,3.7c-0.1,0.2,0.3,0.4,0.4,0.2c0.8-1.7,1.3-3.6,1.2-5.5c0-0.7,0.2-3.1-0.9-3.2
				c-2.1-0.2-2,7.6-1,8.6c0.1,0.1,0.2,0.1,0.3,0C19.6,76.6,19.6,76.5,19.6,76.4z"/>
			<path id="Path_5" class="st1" d="M22.6,80.5c-1-0.9-2.3-1.5-3.7-1.5c-0.7,0-2.8-0.2-3,0.8c-0.1,0.9,1.6,1.1,2.1,1.2
				c1.5,0.3,3,0.2,4.4-0.3c0.2-0.1,0.1-0.4-0.1-0.4c-0.5,0.1-6,0.7-5.5-0.7c0.1-0.4,2.5-0.2,3-0.2c1,0.1,1.9,0.5,2.7,1.1
				C22.6,80.7,22.7,80.6,22.6,80.5L22.6,80.5z"/>
			<path id="Path_6" class="st1" d="M30.5,92.4c-0.1-1.5-0.1-3,0.2-4.6c0.1-0.7,0.4-1.5,0.6-2.2c0.1-0.2,1.2-3.3,2.2-1.8
				c0.3,0.5,0,1.8-0.1,2.3c-0.1,0.7-0.3,1.3-0.6,2c-0.6,1.5-1.6,2.9-2.9,3.9c-0.3,0.2,0.1,0.7,0.4,0.4c1.6-1.4,2.7-3.2,3.3-5.2
				c0.3-1,1.1-4.1-0.3-4.6c-1.3-0.4-2.2,1.9-2.5,2.7c-0.9,2.2-1.1,4.6-0.5,6.9C30.3,92.6,30.5,92.6,30.5,92.4L30.5,92.4z"/>
			<path id="Path_7" class="st1" d="M42,95.9c-2.3,4-2.9,8.8-3.7,13.3c-0.9,5.3-1.8,10.5-2.4,15.8s-1.2,10.6-1.4,15.9
				c-0.4,5.2-0.3,10.4,0.1,15.5c0,0.4,0.6,0.3,0.6,0c0-5.2-0.2-10.3,0.1-15.4c0.2-5.2,0.7-10.3,1.4-15.4c0.6-5.1,1.4-10.2,2.3-15.3
				c0.8-4.8,1.5-9.7,3.5-14.1C42.6,95.8,42.1,95.6,42,95.9z"/>
			<path id="Path_8" class="st1" d="M32.4,79.7c0.6,1,1.1,2,1.3,3.2c0.3,1.1,0.7,2.2,1,3.2c0.6,2.1,1.2,4.2,1.6,6.3
				c0.9,4.2,1.6,8.5,2.1,12.8c0.9,8.9,0.8,17.9-0.2,26.8c-0.5,5-1.4,9.8-2.2,14.8c-0.1,0.3,0.5,0.4,0.6,0.1c2-9,3.1-18.2,3.1-27.4
				c0.2-9.1-0.7-18.2-2.6-27c-0.6-2.5-1.2-5.1-2-7.5c-0.5-1.6-1-4.4-2.4-5.5C32.5,79.3,32.3,79.6,32.4,79.7z"/>
			<path id="Path_9" class="st1" d="M41.8,80.2c-3.7,10.2-4.2,21.2-2.8,31.9c0.7,6,1.8,12,2.2,18c0.3,5.8-0.5,11.4-0.8,17.2
				c0,0.2,0.1,0.3,0.3,0.3c0.2,0,0.3-0.1,0.3-0.3c0.9-5.7,1.2-11.4,0.9-17.2c-0.3-5.6-1.3-11-2-16.5c-0.8-5.6-1.1-11.2-0.8-16.8
				c0.4-5.6,1.4-11.1,3-16.4c0-0.1,0-0.1-0.1-0.2C41.9,80.1,41.8,80.1,41.8,80.2z"/>
			<path id="Path_10" class="st1" d="M38,76.9c-1.6,9.6-1,19.7-0.3,29.3c0.7,9.6,1.9,19.1,2.8,28.7c0.5,5.7,1,11.4,1.3,17.1
				c0,0.3,0.5,0.4,0.5,0c-0.1-9.7-1.3-19.3-2.3-28.9c-1-9.8-2.1-19.6-2.2-29.5c-0.1-5.6,0.3-11.1,0.6-16.6
				C38.3,76.7,38.1,76.7,38,76.9L38,76.9z"/>
			<path id="Path_11" class="st1" d="M16.9,113.6c-0.7-0.3-1.4-0.6-2.1-0.8c-0.8-0.1-1.6-0.1-2.4,0.2c-1,0.3-1.7,1.2-1.7,2.3
				c0.1,1,1.1,1.6,2,1.5c0,0,0.1,0,0.1,0c1.8-0.1,3.1-1.4,4.6-2.1c0.3-0.1,0.1-0.6-0.2-0.5c-0.8,0.3-1.5,0.7-2.2,1.2
				c-0.5,0.3-1,0.5-1.5,0.7c-0.3,0.1-0.7,0.1-1,0.2c-0.4,0.1-0.8-0.1-0.9-0.5c0,0,0-0.1,0-0.1c-0.5-0.5-0.5-1,0.1-1.5
				c0.3-0.3,0.7-0.5,1.1-0.6c0.5-0.1,1-0.2,1.5-0.1c0.9,0.1,1.6,0.6,2.5,0.6c0.1,0,0.1-0.1,0.1-0.1C17,113.7,17,113.7,16.9,113.6z"
				/>
			<path id="Path_12" class="st1" d="M11.8,110.6c-0.8-0.7-1.2-1.7-1.3-2.7c0.1-0.4,0.6-1.8,1.3-1c0.3,0.3,0.2,1.2,0.2,1.6
				c-0.2,1.2,0.3,2.4,1.3,3.1c0.2,0.2,0.5-0.2,0.3-0.4c-0.7-0.6-1.1-1.5-1-2.5c0.1-0.6,0-1.2-0.1-1.7c-0.2-0.7-0.7-1.1-1.4-0.8
				c-2.1,0.9-0.8,3.8,0.5,4.6c0.1,0,0.1,0,0.1,0C11.8,110.7,11.8,110.7,11.8,110.6z"/>
			<path id="Path_13" class="st1" d="M36.9,132.4c-0.3-1.1-1.4-1.9-2.5-1.7c-1.2,0.1-3.3,1.1-3.7,2.3c-0.3,0.9,0.6,1.2,1.4,1.2
				C33.7,134,35.4,133.4,36.9,132.4c0.2-0.1,0.2-0.3,0.1-0.4c-0.1-0.1-0.3-0.2-0.4-0.1c-0.8,0.4-1.6,0.8-2.4,1.1
				c-0.4,0.1-2.1,0.9-2.5,0.5c-0.5-0.3,0-0.9,0.3-1.1c0.4-0.3,0.8-0.6,1.2-0.8c1.1-0.7,2.7-0.4,3.4,0.8c0,0,0,0.1,0,0.1
				c0,0.1,0.1,0.1,0.2,0.1C36.8,132.6,36.9,132.5,36.9,132.4L36.9,132.4z"/>
			<path id="Path_14" class="st1" d="M40.5,137.3c-0.3-1.3-0.5-2.6-0.5-3.8c0-0.6,0.2-1.1,0.3-1.6c0.5-1.2,1.1-0.5,0.9,0.3
				c-0.2,1.8-1.4,3.6-1.2,5.5c0,0.1,0.2,0.2,0.3,0.2c0.1,0,0.1-0.1,0.2-0.2c0.3-1.7,1-3.3,1.3-5c0.1-0.6,0.5-2.3-0.6-2.5
				c-1-0.2-1.5,1.6-1.7,2.3c-0.3,1.7-0.1,3.4,0.7,4.9c0,0.1,0.1,0.1,0.2,0C40.5,137.4,40.5,137.4,40.5,137.3L40.5,137.3z"/>
			<path id="Path_15" class="st1" d="M42.3,141.3c-0.1-0.8-1.2-0.6-1.8-0.5c-0.8,0.1-2,0.7-2.2,1.6c-0.2,0.8,0.6,1.3,1.3,1.4
				c1.2-0.1,2.3-0.5,3.3-1.1c0.4-0.2,0.1-0.7-0.3-0.6c-0.5,0.2-1.1,0.5-1.6,0.7c-0.3,0.1-1.1,0.5-1.5,0.3c-0.1-0.3-0.2-0.7-0.4-1
				c0.1-0.1,0.2-0.2,0.3-0.3c0.3-0.2,0.5-0.3,0.8-0.4c0.5-0.1,1.3-0.3,1.7,0c0,0,0.1,0.1,0.2,0C42.3,141.4,42.3,141.4,42.3,141.3
				L42.3,141.3z"/>
			<path id="Path_16" class="st1" d="M-12.4,74.6c4.1,3.2,6.5,7.9,7.8,12.9c0.5,1.8,0.9,3.7,2.5,4.9c1.2,0.8,2.3,1.2,3,2.6
				c0.5,1.1,0.8,2.1,1.2,3.2c1.4,3.5,5,5.7,8.7,5.2c1.7-0.2,2,1,3.2,1.8c0.9,0.6,1.9,1,2.9,1.2c2.3,0.7,4.6,1.2,7,1.6
				c2.9,0.3,5.7-0.4,8.6-0.6c3-0.1,6.8,1.3,6.2,5c-0.1,0.4,0.5,0.5,0.6,0.1c1.2-4.3-3.9-6.1-7.2-5.8c-2.9,0.2-5.6,0.9-8.6,0.5
				c-2.7-0.3-5.4-1-8-2c-0.7-0.3-1.4-0.8-1.9-1.4c-0.3-0.4-0.6-0.7-1-0.9c-0.8-0.2-1.6-0.3-2.4-0.1c-2.6,0.2-5.1-1.1-6.6-3.2
				c-1.3-1.9-1.3-4.4-2.9-6.1c-0.8-0.8-1.8-1.1-2.7-1.8c-1.2-1.1-1.5-2.7-1.9-4.2c-1.4-5.1-3.8-10-8.3-13c-0.1,0-0.2,0-0.2,0.1
				C-12.5,74.4-12.5,74.5-12.4,74.6z"/>
			<path id="Path_17" class="st1" d="M-13,74.4c1.3-0.2,2.3,0.7,3.4,1.3c0.8,0.4,1.6,0.8,2.4,1.1c2,0.6,4.1,1.1,6.2,1.5
				c4,0.8,7.9,1.9,11.8,3.2c4,1.4,7.8,3.3,11.2,5.8c3.6,2.8,6.9,6.1,9.7,9.8c1.7,2.1,3.2,4.5,4.3,7c1,2.4,1.6,4.9,2.7,7.3
				c0.1,0.2,0.5,0.1,0.4-0.2c-0.9-4.6-2.8-8.9-5.4-12.7c-2.8-4-6.1-7.5-9.8-10.6c-6.7-5.5-15.3-8.1-23.7-10c-2.5-0.4-5-1-7.4-1.7
				c-1.9-0.6-3.8-2.3-5.9-2C-13.2,74.2-13.2,74.4-13,74.4z"/>
			<path id="Path_18" class="st1" d="M-2.4,78.1c7.4,5,15.1,9.4,22.6,14.3c6.8,4.4,14.1,9.1,17.6,16.7c0.2,0.3,0.7,0.1,0.5-0.3
				c-3.1-7.4-10.4-12.1-16.9-16.4c-7.7-5.1-15.7-10-23.7-14.6c-0.1,0-0.1,0-0.2,0S-2.4,78.1-2.4,78.1L-2.4,78.1z"/>
			<path id="Path_19" class="st1" d="M13.3,71.1c1.5,2,3.3,3.9,5.3,5.5c2,1.9,3.8,3.9,5.4,6.1c3.2,4.6,6,9.5,8.2,14.6
				c0.1,0.3,0.6,0.1,0.5-0.2c-1.9-5-4.5-9.7-7.7-14c-1.6-2.3-3.4-4.5-5.4-6.4c-2-1.9-3.9-4-6-5.8C13.4,70.8,13.2,70.9,13.3,71.1z"/>
			<path id="Path_20" class="st1" d="M48.3,33.7c0.7,0.8,1.6,1.4,2.6,1.8c0.6,0.3,1.3,0.5,1.9,0.8c0.4,0.3,0.9,0.5,1.4,0.7
				c0.2,0,0.5-0.3,0.2-0.4c-0.8-0.5-1.7-0.9-2.5-1.2c-1.2-0.4-2.3-1-3.3-1.8c0,0-0.1,0-0.2,0C48.2,33.6,48.2,33.7,48.3,33.7z"/>
			<path id="Path_21" class="st1" d="M42.5,24.4c0.1-2.2,0.8-4.1,1.1-6.2c0-0.3-0.4-0.3-0.4-0.1c-0.8,2-1.1,4.2-0.9,6.3
				C42.3,24.6,42.5,24.5,42.5,24.4L42.5,24.4z"/>
			<path id="Path_22" class="st1" d="M43.4,17.7c1.3,1.1,3,1.6,4.4,2.6c0.9,0.6,1.6,1.5,2,2.5c0.1,0.6,0.4,1.2,0.8,1.7
				c0.3,0.3,0.7,0.5,1.1,0.6c1.2,0.6,2.1,1.7,2.4,3c0.8,1.7,1.1,3.5,0.9,5.4c0,0.3,0.5,0.4,0.6,0.1c0.6-1.7-0.1-3.5-0.7-5.1
				c-0.5-1.6-1-3-2.6-3.8c-0.9-0.4-1.1-0.2-1.7-1.5c-0.1-0.3-0.2-0.6-0.3-0.9c-0.3-0.7-0.8-1.3-1.4-1.7c-1.5-1.3-3.5-2-5.3-2.9
				c-0.1,0-0.1,0-0.2,0C43.3,17.6,43.3,17.7,43.4,17.7z"/>
			<path id="Path_23" class="st1" d="M44.1,19.6c2.4,2,4.4,4.5,5.9,7.3c1.3,2.6,2.5,5.3,3.3,8.2c0.1,0.3,0.5,0.1,0.5-0.2
				c-0.6-3.2-1.8-6.2-3.6-8.9c-1.5-2.5-3.4-5.1-6-6.6c-0.1,0-0.1,0-0.2,0.1C44,19.5,44,19.5,44.1,19.6z"/>
			<path id="Path_24" class="st1" d="M14.8,26.8c-1.4-0.9-2.1-2.6-2.9-3.9c-0.9-1.5-1.7-2.9-2.5-4.4c-1.6-2.9-3-5.9-4.3-8.9
				C4.9,9.3,4.5,9.5,4.6,9.8c1.4,3.5,3,6.9,4.8,10.1c0.9,1.6,1.8,3.1,2.7,4.6c0.6,1,1.3,2.2,2.5,2.6c0.1,0,0.2,0,0.2-0.1
				C14.9,27,14.9,26.9,14.8,26.8L14.8,26.8z"/>
			<path id="Path_25" class="st1" d="M12.9,25c-0.1-1.4-0.1-2.8,0-4.2c0.2-1.2,0.6-4.1,1.7-4.9c0.2-0.5,0.5-0.4,0.7,0.3
				c0.5,0.3,0.6,0.6,0.4,1c-0.1,0.4-0.2,0.8-0.3,1.2c-0.2,0.7-0.5,1.4-0.8,2c-0.7,1.5-1.5,2.8-2.2,4.2c-0.1,0.2,0,0.3,0.1,0.4
				c0.1,0.1,0.3,0,0.4-0.1c1.3-1.9,2.4-3.9,3.1-6.1c0.4-0.9,1.3-3.9-0.5-4.2c-1.5-0.3-2.4,2.6-2.7,3.6C12,20.4,12,22.8,12.6,25
				C12.7,25.1,12.9,25.2,12.9,25L12.9,25z"/>
			<path id="Path_26" class="st1" d="M11,21.6c-1.4-0.4-2.7-0.6-4.1-1c-0.8-0.3-1.5-0.6-2.3-1c-0.5-0.3-1.8-1-1.9-1.4
				c-0.2-0.9,0.8-0.4,1.3-0.1c0.7,0.3,1.4,0.8,2.1,1.2c1.3,0.8,2.6,1.8,3.9,2.6c0.3,0.2,0.7-0.2,0.4-0.5c-0.7-0.6-8.3-6.3-8.9-4.1
				c-0.3,1.1,2.4,2.6,3.2,3c1.9,0.9,4.1,1.5,6.2,1.6C11.1,21.9,11.1,21.7,11,21.6z"/>
			<path id="Path_27" class="st1" d="M8.5,17.6c0.5-0.9,0.2-2,0.4-3c0.3-1.5,0.9-2.9,1.8-4.1c0.2-0.3,0.5-0.6,0.8-0.9
				c0.3-0.4,0.5-0.4,0.6,0.1c0.3,0.2,0.4,0.4,0.2,0.6c-0.2,0.8-0.6,1.6-1.1,2.2c-0.9,1.5-1.9,2.8-3,4.1C8,17,8.4,17.5,8.7,17.2
				c0.7-0.7,6.5-8.3,3.9-8.9c-1.3-0.3-3,2.6-3.4,3.5c-0.4,0.7-0.6,1.5-0.8,2.3c-0.2,1.1,0.1,2.3-0.2,3.4C8.2,17.6,8.4,17.7,8.5,17.6
				L8.5,17.6z"/>
			<path id="Path_28" class="st1" d="M4.9,9.4C3.6,9,2.5,6.5,1.8,5.3C1.4,4.6,1,3.9,0.7,3.1C0.5,2.5,0,1.2,0.3,0.6
				C0.5,0.4,0.8,0.3,1,0.1l0.3,0.4c0.3,0.3,0.5,0.7,0.7,1.2C2.5,2.3,2.8,3,3.2,3.7c0.8,1.6,2.5,4.4,1.4,6C4.4,10,4.8,10.3,5,10.1
				c1.7-1.8-0.2-4.7-1-6.4C3.5,2.7,1.8-1.8,0.2-0.9S0,3.5,0.6,4.6C1.2,5.8,2,7,2.8,8.2c0.5,0.8,1,1.6,2.1,1.7c0.1,0,0.2-0.1,0.2-0.2
				C5.1,9.5,5,9.5,4.9,9.4z"/>
			<path id="Path_29" class="st1" d="M6.9,14.1c-1.5-0.2-3-0.6-4.5-1.1c-1.5-0.6-3.6-1.5-4.7-2.9c-0.2-0.3-0.3-0.6-0.5-0.9l1-0.3
				c0.5,0.2,1,0.5,1.5,0.9c0.7,0.4,1.3,0.9,2,1.3c1.5,0.9,3,1.9,4.4,3.1c0.3,0.3,0.7-0.1,0.5-0.4C5.8,12.9,5,12.2,4,11.7
				c-1.2-0.8-2.5-1.6-3.7-2.4C-0.4,8.9-3,7.1-3.3,8.9c-0.3,1.6,2.2,3,3.3,3.6c2.1,1.3,4.5,1.9,7,1.9C7,14.3,7.1,14.2,6.9,14.1
				L6.9,14.1z"/>
			<path id="Path_30" class="st1" d="M1.3,56c-0.7,0-2.2-2.9-2.6-3.5C-2.2,51.4-3,50.2-3.8,49c-1.7-2.4-3.8-4.8-4.6-7.7
				c-0.2-0.7-0.3-1.4-0.2-2.1c-0.1-0.8,0.2-1.1,1-1.1c0.2,0.3,0.4,0.6,0.5,0.9c0.7,1.3,1.3,2.7,1.9,4c0.6,1.4,1.3,2.8,1.8,4.3
				c0.3,1.3,0.5,2.6,0.7,3.9c0,0.1,0.2,0.2,0.3,0.2c0.1,0,0.2-0.1,0.2-0.2C-2,47.4-4,43.6-5.6,40.2c-0.4-1-1.1-3.1-2.4-3.2
				c-1.1-0.1-1.3,1.2-1.4,2c-0.4,3.8,2.5,7.1,4.6,9.9c1.3,1.7,2.6,3.5,3.9,5.2c0.4,0.6,1.4,2.6,2.3,2.1C1.4,56.2,1.4,56.2,1.3,56
				C1.4,56.1,1.3,56.1,1.3,56L1.3,56z"/>
			<path id="Path_31" class="st1" d="M-0.2,54.8c-2.1-2.5-4.7-4.7-7.6-6.3c-1.1-0.7-2.3-1.3-3.6-1.6c-0.7-0.1-2.2-0.3-2.5,0.6
				c-0.7,1.8,3.4,3.5,4.5,4c3.1,1.3,6.9,1.8,9.2,4.4c0.2,0.2,0.4,0,0.4-0.2c-0.7-1.8-3-2.5-4.6-3.1c-2.5-0.9-5.2-1.6-7.4-3.1
				c-0.6-0.4-2-1.3-0.5-2c0.5-0.2,1.6,0.2,2,0.4c1.3,0.6,2.5,1.3,3.6,2.1c2.2,1.5,4.1,3.4,6.2,5.1C-0.2,55.2-0.1,54.9-0.2,54.8
				L-0.2,54.8z"/>
			<path id="Path_32" class="st1" d="M44.2,133.4c2.6-1.2,5.4-2.2,8.1-3c2.3-0.6,4.6-1.3,6.8-2.1c2.1-0.8,4-2,5.7-3.5
				c1.1-1.1,2.8-3,1.7-4.6c-0.2-0.2-0.7-0.1-0.5,0.2c0.9,2.5-2.2,4.6-4,5.7c-1.9,1.1-3.9,2-6,2.6c-4,1.2-8.4,1.9-11.9,4.4
				C43.8,133.2,44,133.5,44.2,133.4z"/>
			<path id="Path_33" class="st1" d="M66,120.4c1.8,1,4.8-0.3,6.5-1.1c2.3-1,5.1-2.2,6.4-4.5c1.2-2.1,1.1-4.8,1.3-7.2
				c0.3-3.2,0.3-7,3.5-8.6c0.4-0.2,0.1-0.7-0.3-0.6c-4.5,1.9-3.7,8.7-4.1,12.6c-0.1,1.4-0.5,2.8-1.3,4c-1,1.1-2.2,2.1-3.6,2.7
				c-1.5,0.8-3,1.4-4.6,1.9c-1.2,0.3-2.5,0.5-3.7,0.5C66,120.2,65.9,120.3,66,120.4C66,120.4,66,120.4,66,120.4L66,120.4z"/>
			<path id="Path_34" class="st1" d="M83.3,98.6c-4.2,0.4-8.4,1.3-12.4,2.8c-1,0.4-2.1,0.8-3.1,1.2c-0.6,0.3-1.3,0.5-2,0.6
				c-0.6,0-1.1-0.2-1.7-0.2c-1.9-0.1-3.9,0-5.8,0.4c-3.9,0.9-5.9,4.2-7.9,7.4c-1,1.6-1.8,3.2-2.5,5c-0.4,1.8-0.5,3.7-0.4,5.5
				c-0.1,4.6-2,8.5-4.7,12.2c-0.2,0.3,0.2,0.6,0.5,0.4c2.9-3.1,4.6-7.2,4.9-11.4c0.2-2.5-0.2-4.9,0.7-7.3c1-2.4,2.4-4.7,4-6.9
				c0.8-1.2,1.8-2.3,3-3.2c1.2-0.7,2.6-1.1,4-1.3c1.3-0.2,2.6-0.3,3.9-0.2c1,0.2,2,0.3,3,0.1c1.3-0.4,2.5-1.1,3.8-1.5
				c1.3-0.5,2.7-0.9,4.1-1.3c2.8-0.8,5.7-1.3,8.6-1.8C83.5,98.9,83.5,98.6,83.3,98.6z"/>
			<path id="Path_35" class="st1" d="M40.1,137.9c2.7-2.6,5.1-5.6,7.6-8.4c2.4-2.8,4.9-5.5,7.5-8.1c5.1-5,10.5-9.6,16.2-13.8
				c0.3-0.2-0.1-0.7-0.3-0.5c-5.9,4-11.4,8.6-16.4,13.7c-2.6,2.6-5,5.4-7.5,8.2c-2.5,2.9-5.1,5.7-7.3,8.7
				C39.8,137.9,40,138,40.1,137.9L40.1,137.9z"/>
			<path id="Path_36" class="st1" d="M47.5,131.5c1.5-0.6,2.9-1.5,4.1-2.5c1.7-1.4,3.6-2.5,5.7-3.2c3.1-1,7.3-1.3,9.6-3.9
				c0.2-0.2,0-0.7-0.4-0.5c-1.6,1.1-3.3,1.9-5.2,2.5c-1.7,0.5-3.4,0.9-5,1.5c-3.4,1.2-6.1,3.9-9,6C47.3,131.4,47.4,131.6,47.5,131.5
				L47.5,131.5z"/>
			<path id="Path_37" class="st1" d="M48.5,115.3c-0.3,1.2-0.4,2.4-0.2,3.6c0.3,1.8,1.1,3.3,0.8,5.1c-0.4,3.3-2.7,5.6-4.6,8.1
				c-0.2,0.2,0.2,0.5,0.4,0.3c2.3-2,3.9-4.5,4.7-7.4c0.3-1.3,0.3-2.6-0.1-3.9c-0.7-1.9-0.9-3.9-0.8-5.8c0-0.1,0-0.1-0.1-0.1
				C48.6,115.2,48.5,115.2,48.5,115.3L48.5,115.3L48.5,115.3z"/>
			<path id="Path_38" class="st1" d="M9.1,109.8c3.2,1.9,6.6,3.4,9.7,5.5c3.3,2.2,6.3,4.6,9.2,7.3c5.5,5.2,10.1,11.3,13.6,18.1
				c2,4,3.6,8.1,5,12.3c0.1,0.3,0.7,0.3,0.6-0.1c-1.7-7.4-5.4-14.5-9.8-20.7c-4.5-6.4-10.1-11.9-16.5-16.4c-3.5-2.4-7.5-5-11.6-6.3
				C9.1,109.6,9,109.8,9.1,109.8z"/>
			<path id="Path_39" class="st1" d="M33.9,127.9c-0.7-0.4-0.9-1.9-1.1-2.7c-0.2-0.8-0.4-1.6-0.6-2.4c-0.2-0.7-0.2-1.5,0-2.3
				c0-0.3,0.2-0.7,0.3-1c0.4-0.1,0.8-0.2,1.3-0.2c0.2,0.1,0.3,1.1,0.4,1.3c0.4,2.9-1,5.8-0.2,8.7c0.1,0.3,0.5,0.3,0.5,0
				c-0.1-2.5,0.4-4.9,0.4-7.4c0-1-0.1-3.9-1.8-3.6c-1.7,0.2-1.7,3.1-1.5,4.3c0.2,1.3,0.5,2.6,1,3.8c0.3,0.7,0.4,1.6,1.2,1.8
				c0.1,0,0.1,0,0.2-0.1C34,128,34,127.9,33.9,127.9L33.9,127.9z"/>
			<path id="Path_40" class="st1" d="M29.3,123.3c-0.9-1.6-3.3-2.1-4.9-2.3c-1.5-0.3-3.6-0.5-4.6,1.1c-0.8,1.4,0.1,2.2,1.5,2.3
				c2.5,0.1,4.7-1.3,7.2-1.2c0.2,0,0.3-0.1,0.3-0.3c0-0.1-0.1-0.3-0.3-0.3c-1.1,0-2.2,0.1-3.2,0.4c-0.6,0.2-1.2,0.4-1.8,0.5
				c-0.3,0.1-0.6,0.1-0.9,0.2c-0.9,0.2-1.2,0.3-1.8-0.6c-0.6-0.4-0.7-0.7-0.2-1c0.2-0.2,0.4-0.4,0.7-0.5c0.4-0.2,0.9-0.2,1.4-0.2
				c0.7,0,1.4,0.1,2,0.3c1.6,0.2,3.1,0.9,4.4,1.8C29.2,123.5,29.3,123.4,29.3,123.3L29.3,123.3z"/>
			<path id="Path_41" class="st1" d="M23,118.1c-1-0.8-1.9-1.8-2.6-3c-0.4-0.6-0.6-1.3-0.8-2c-0.1-0.3-0.2-0.6-0.2-0.9
				c0-0.2,0-0.4-0.1-0.6c0.8-0.5,1.3-0.4,1.5,0.2c0.9,1,1.1,3.1,1.4,4.4c0.1,1,0.5,1.9,1.1,2.6c0.1,0.1,0.3,0.1,0.4,0
				c0.1-0.1,0.1-0.3,0-0.4c-1.4-1.9-1.3-4.7-2.3-6.7c-0.4-0.8-1.3-2.1-2.3-1.1c-0.9,0.9-0.3,2.6,0.1,3.6c0.7,1.7,1.9,3.2,3.5,4.1
				C23,118.5,23.2,118.2,23,118.1z"/>
			<path id="Path_42" class="st1" d="M70.2,58.8c0.4-0.2,0.7-0.5,1.1-0.7c0.4-0.3,0.8-0.6,1.2-0.9c0.6-0.4,1.3-0.8,2-1.2
				c1.2-0.7,2.4-1.5,3.5-2.3c2.5-1.9,4.6-4.2,6.4-6.7c0.2-0.3-0.2-0.6-0.5-0.4c-2.2,2.7-4.7,5.2-7.4,7.4c-1.3,0.9-2.7,1.7-4,2.6
				c-0.7,0.5-2.4,1.4-2.5,2.4c0,0.1,0.1,0.2,0.2,0.2c0,0,0.1,0,0.1,0l0.1,0c0.1,0,0.1-0.1,0.1-0.1c0,0,0,0,0-0.1
				C70.4,58.7,70.3,58.7,70.2,58.8C70.2,58.7,70.2,58.7,70.2,58.8L70.2,58.8z"/>
			<path id="Path_43" class="st1" d="M84.2,46.6c0.2-1.1,0.7-2.1,1.4-3c0.3-0.4,0.6-0.9,1-1.3c0.2-0.2,0.4-0.4,0.7-0.6
				c0.5-0.4,0.7-0.3,0.6,0.2c0.1,0.9-0.8,2-1.5,2.7c-0.6,0.6-1.4,1.1-2.3,1.4C83.9,46.2,84,46.6,84.2,46.6c1.4-0.4,2.5-1.2,3.2-2.3
				c0.4-0.5,1.8-2.4,0.9-3.1c-0.8-0.6-2,0.7-2.4,1.2c-0.9,1.1-2,2.7-2,4.1c0,0.1,0.1,0.1,0.1,0.1C84.1,46.8,84.2,46.7,84.2,46.6
				L84.2,46.6z"/>
			<path id="Path_44" class="st1" d="M75.9,54.8c0.3-1.9,0.8-3.8,1.5-5.6c0.4-0.9,0.8-1.8,1.4-2.6c0.4-0.6,2.1-2.5,1.6-0.6
				c-0.8,3-3.1,5.2-4.1,8.1c-0.1,0.3,0.3,0.4,0.5,0.1c1-2.1,2.3-3.9,3.3-6c0.4-0.8,1.7-3.2,0.8-4.1c-0.1-0.1-0.2-0.1-0.3-0.1
				c-1.6,0.5-2.5,2.4-3.2,3.8c-1,2.2-1.7,4.5-1.8,6.9C75.6,55,75.8,55,75.9,54.8z"/>
			<path id="Path_45" class="st1" d="M76.9,54c1.9-0.6,3.8-1.2,5.7-1.7c0.9-0.2,1.8-0.5,2.8-0.7c0.7-0.1,3.5-0.9,2.4,0.5
				c-0.5,0.6-2.1,1-2.8,1.1c-1,0.2-2,0.4-3,0.5c-1.9,0.1-3.7,0.3-5.6,0.6c-0.1,0-0.2,0.2-0.2,0.3c0,0.1,0.2,0.2,0.3,0.2
				c2.7-0.4,5.5-0.4,8.1-1c0.9-0.2,4.7-1.1,4.3-2.5c-0.3-1.2-3.6-0.2-4.4,0c-2.6,0.6-5.2,1.4-7.7,2.4C76.7,53.9,76.7,54.1,76.9,54
				L76.9,54z"/>
			<path id="Path_46" class="st1" d="M72,57c0.2-1.3,0.2-2.6,0.4-3.9c0.2-1.1,0.5-3.5,1.3-4.3c0.1-0.5,0.3-0.5,0.7-0.1
				c0,0.3-0.1,0.6-0.1,0.9c-0.1,0.7-0.3,1.5-0.5,2.2c-0.4,1.3-1,2.5-1.7,3.6c-0.1,0.1,0,0.3,0.1,0.3c0.1,0.1,0.2,0,0.3-0.1
				c1.1-1.5,1.8-3.3,2.1-5.1c0.1-0.5,0.8-3.1-0.3-3.1c-1.1,0-1.8,3-2,3.7c-0.6,1.9-0.8,3.9-0.6,5.9C71.9,57.1,72,57.1,72,57L72,57z"
				/>
			<path id="Path_47" class="st1" d="M72.7,57c1.5-0.3,3.1-0.4,4.6-0.3c0.5,0,3.9,0.5,3.3,1.3c-0.2,0.3-1.9,0.2-2.2,0.2
				c-0.5,0-0.9,0-1.4-0.1c-1.4-0.2-2.7-0.5-3.9-1c-0.2-0.1-0.4,0.3-0.2,0.4c1.7,0.9,3.6,1.3,5.5,1.2c0.6,0,2.8,0.1,3-0.7
				c0.3-1-1.9-1.5-2.6-1.6c-2.1-0.4-4.2-0.3-6.2,0.4c-0.1,0-0.1,0.1-0.1,0.1C72.6,57,72.7,57.1,72.7,57z"/>
			<path id="Path_48" class="st1" d="M70.3,59c1.3,0.1,2.6,0.4,3.8,0.8c0.9,0.3,2.7,0.8,3.2,1.7c-0.2,1.3-0.7,1.7-1.7,1.3l-0.4-0.2
				c-0.7-0.3-1.3-0.6-1.9-1c-1-0.6-1.8-1.3-2.6-2.1c-0.2-0.2-0.5,0-0.4,0.2c0.9,1.5,6.2,5.6,7.7,3.1c0.7-1.2-1-2.3-1.8-2.7
				c-1.8-0.9-3.8-1.3-5.8-1.3c-0.1,0-0.1,0.1-0.1,0.1C70.1,59,70.2,59,70.3,59z"/>
			<path id="Path_49" class="st1" d="M53.3,42.7c3.4-1.7,6.6-3.6,9.8-5.7c3-1.9,6.1-3.9,9-6.1c0.2-0.2,0-0.6-0.3-0.4
				c-3.1,2-6.1,4.1-9.2,6.1c-3.1,2-6.3,3.8-9.4,5.8c-0.1,0.1-0.1,0.2-0.1,0.3C53.1,42.8,53.2,42.8,53.3,42.7L53.3,42.7z"/>
			<path id="Path_50" class="st1" d="M58.7,39.2c3.2-2.1,3.7-5.7,6-8.5c1.2-1.5,2.7-2.8,4.4-3.7c1.8-0.9,3.6-1.5,5.6-1.8
				c0.1,0,0.2-0.2,0.2-0.3c0-0.1-0.1-0.2-0.2-0.2c-3.4,0-6.9,2-9.3,4.4c-1.2,1.2-2.3,2.7-3,4.3c-0.9,2.1-2.2,4.1-3.8,5.7
				C58.5,39.1,58.6,39.3,58.7,39.2L58.7,39.2z"/>
			<path id="Path_51" class="st1" d="M58.5,40c1.3,0.8,3.5,0.5,5,0.4c1.7-0.1,3.4-0.4,5-1c1-0.4,6.1-2.8,3.8-4.3
				c-0.4-0.3-0.7,0.3-0.4,0.6c0.9,0.6-2.3,2.5-2.6,2.7c-1,0.5-2.2,0.9-3.3,1.1c-2.4,0.6-4.9,0.7-7.4,0.3
				C58.5,39.8,58.4,39.9,58.5,40L58.5,40z"/>
			<path id="Path_52" class="st1" d="M71.7,35.5c3.6-0.1,5.8-3.4,6.8-6.5c1.2-3.8,0.2-7.7,1.5-11.4c0.1-0.3-0.4-0.5-0.5-0.2
				c-1.4,2.8-0.7,6-1,9c-0.2,1.9-0.8,3.7-1.8,5.4c-1.2,1.8-2.9,3-5,3.5C71.5,35.2,71.5,35.5,71.7,35.5L71.7,35.5z"/>
			<path id="Path_53" class="st1" d="M79.4,17.4c-2.2,1.5-3.7,3.8-4.2,6.4c-0.7,3.4,0.6,6.8-1.2,10.1c-0.1,0.1,0,0.3,0.1,0.4
				c0.1,0.1,0.3,0,0.4-0.1c1.8-2.3,1.1-5.5,1.1-8.2c0.1-3.2,1.5-6.2,4-8.3C79.7,17.5,79.6,17.4,79.4,17.4L79.4,17.4z"/>
			<path id="Path_54" class="st1" d="M53.3,43c1.4-3.6,2.6-7.2,3.9-10.8c1.3-3.6,3-6.9,4.5-10.4c0.1-0.3-0.3-0.5-0.5-0.2
				c-1.9,3.2-3.4,6.6-4.5,10.2c-1.4,3.6-2.6,7.4-3.6,11.2c0,0.1,0,0.1,0.1,0.2C53.2,43.1,53.3,43.1,53.3,43L53.3,43z"/>
			<path id="Path_55" class="st1" d="M52,42.4c1.5-2.8,2.7-5.7,3.8-8.7c1.1-2.8,2.2-5.7,2.4-8.7c0.2-2.3-0.6-4.5-2.1-6.2
				c-0.7-0.7-1.6-1.2-2.5-1.5c-1.8-0.6-2.8-1.9-4.1-3.2c-0.3-0.3-0.7,0.1-0.5,0.4c0.7,0.9,1.5,1.7,2.4,2.5c0.9,0.8,2.1,0.9,3.2,1.5
				c2.4,1.5,3.2,4.6,2.9,7.2c-0.6,5.8-3.9,11.2-5.8,16.6C51.7,42.4,51.9,42.6,52,42.4L52,42.4z"/>
			<path id="Path_56" class="st1" d="M49,14.6c2.6-0.8,4.7-0.1,6.9,1.4c0.1,0.1,0.2,0,0.3-0.1c0-0.1,0-0.2,0-0.3
				c-2-1.8-4.8-2.3-7.3-1.3C48.8,14.4,48.9,14.6,49,14.6z"/>
			<path id="Path_57" class="st1" d="M56,15.8c0.3-0.9,0.6-1.9,0.9-2.8c0.3-0.8,0.6-1.6,0.8-2.4c0.1-0.3-0.5-0.4-0.5,0
				c-0.2,0.9-0.7,1.8-0.9,2.7c-0.2,0.8-0.4,1.6-0.5,2.5C55.6,15.9,55.9,16,56,15.8L56,15.8z"/>
			<path id="Path_58" class="st1" d="M57.1,10.9c2.8,2.3,2.4,5.5,2.5,8.8c0,0.2,0.1,0.3,0.3,0.3c0.2,0,0.3-0.1,0.3-0.3
				c0.2-3,0.3-7.5-2.9-9c-0.1,0-0.1,0-0.2,0C57,10.7,57,10.8,57.1,10.9z"/>
			<path id="Path_59" class="st1" d="M60,19.8c0.2-1.4,3.7-2,4.8-2.3c1.2-0.2,2.2-0.6,3.1-1.4c0.2-0.2,0-0.6-0.3-0.4
				C66,16.7,64,17,62.2,17.7c-1,0.4-2.5,0.7-2.5,2c0,0.1,0.1,0.1,0.1,0.1C59.9,19.9,60,19.8,60,19.8z"/>
			<path id="Path_60" class="st1" d="M67.5,16.1c-1.2,2.1-3.3,2.7-5.5,3.4c-0.3,0.1-0.2,0.5,0.1,0.5c2.3-0.5,4.6-1.6,5.6-3.8
				C67.9,16.1,67.6,16,67.5,16.1L67.5,16.1z"/>
			<path id="Path_61" class="st1" d="M62.5,19.8c1.6-0.7,3.4-0.7,4.9,0.1c1,0.6,2.1,0.9,3.3,0.8c0.2,0,0.2-0.2,0.2-0.3
				c0-0.1-0.1-0.2-0.3-0.2c-1.8,0-3.1-1.1-4.9-1.4c-1.2-0.2-2.4,0.1-3.4,0.9C62.2,19.7,62.3,19.9,62.5,19.8z"/>
			<path id="Path_62" class="st1" d="M61.4,21.7c3.2-0.1,6.6,0.5,9.6-1c0.3-0.1,0.1-0.5-0.2-0.5c-1.7,0.2-3.4,0.8-5.1,0.9
				c-1.4-0.1-2.9,0-4.3,0.3C61.2,21.5,61.2,21.7,61.4,21.7L61.4,21.7z"/>
		</g>
		<g id="Group_2" transform="translate(11.293 4.001)">
			<path id="Path_63" class="st2" d="M66.4,77.8c-0.7,0.6-1.9,0.6-2.7,0.7c-1,0.1-2,0.2-2.9,0.3c-0.3,0-0.4,0.5,0,0.5
				c1.2,0,2.5-0.1,3.7-0.3c0.8-0.1,1.8-0.1,2.2-0.9C66.8,77.8,66.6,77.6,66.4,77.8z"/>
			<path id="Path_64" class="st2" d="M16.5,49.5c-0.3-2.9,1.1-4.9,2-7.5c0.7-2-0.1-3.9-1.2-5.7c-0.7-1-1.3-2.1-1.8-3.1
				c-0.6-1.2-0.8-2.5-1.3-3.7c-0.4-0.8-1.4-1.7-2.1-0.6c-0.2,0.3,0.3,0.6,0.5,0.3c0.6-1.1,1.4,1.7,1.5,1.8c0.1,0.3,0.2,0.7,0.4,1
				c0.3,0.8,0.6,1.5,1,2.3c0.9,1.7,2.3,3.3,2.7,5.2c0.4,2-0.9,3.7-1.6,5.6c-0.6,1.4-0.7,3-0.4,4.5c0,0.1,0.1,0.1,0.2,0.1
				C16.5,49.6,16.5,49.5,16.5,49.5z"/>
			<path id="Path_65" class="st2" d="M12.4,28.9c-0.7-3.4-4.2-5.7-7.4-6.3c-1.6-0.3-3.2,0.1-4.4,1.1C-0.7,25-0.7,27-1.2,28.6
				c-0.7,2-1.8,3.9-3.1,5.6c-0.9,1.1-1,2.7-0.2,3.9c1,1.9,2.2,3.7,3.5,5.4c1.1,1.5,2.2,3.4,4,4.2c1,0.3,2.1,0.6,3.2,0.7
				c1.1,0.3,2.2,0.6,3.3,1.1c2.4,1.1,4.7,2.4,6.8,4c0.3,0.2,0.6-0.3,0.3-0.5c-3.3-2.6-7.2-4.5-11.4-5.4c-1.2-0.1-2.4-0.6-3.3-1.4
				c-0.8-0.8-1.5-1.7-2.1-2.7c-1.5-1.9-2.8-4-3.9-6.1c-0.6-1.4-0.1-2.3,0.8-3.4c0.6-0.8,1.2-1.7,1.7-2.7c0.8-1.8,1.4-3.7,1.8-5.6
				c0.9-3.1,4.3-3,6.8-2c2.4,0.9,4.3,2.8,5.3,5.1C12.2,29.2,12.4,29.1,12.4,28.9z"/>
			<path id="Path_66" class="st2" d="M-4.6,34.9c-1.7,2.8-0.6,6,1,8.6c0.7,1.4,1.7,2.6,2.9,3.6C0.6,48,2.4,48,3.8,48
				c0.2,0,0.3-0.1,0.3-0.3c0-0.2-0.1-0.3-0.3-0.3c-1.3-0.1-2.9,0-4-0.7c-1.2-0.7-2.1-2.4-2.9-3.5c-1.6-2.4-2.7-5.4-1.3-8.2
				C-4.3,34.9-4.5,34.8-4.6,34.9z"/>
			<path id="Path_67" class="st2" d="M-0.7,28.8c2.9,2.8,5.5,5.9,7.8,9.2c0.2,0.2,0.6,0,0.4-0.2c-2.2-3.4-4.9-6.5-8-9.2
				C-0.6,28.5-0.8,28.7-0.7,28.8z"/>
			<path id="Path_68" class="st2" d="M-2.1,30.9c3.8,3.5,7.4,7.3,10.7,11.2c0.2,0.2,0.5-0.1,0.4-0.3c-3.1-4.2-6.8-7.9-11-11.1
				C-2.1,30.7-2.2,30.8-2.1,30.9z"/>
			<path id="Path_69" class="st2" d="M12.1,29.6c0.9,3.9,1.6,7.8,2.1,11.7c0,0.3,0.4,0.2,0.4-0.1c-0.4-3.9-1.1-7.8-2.2-11.7
				c0-0.1-0.1-0.1-0.2-0.1C12.1,29.4,12.1,29.5,12.1,29.6z"/>
			<path id="Path_70" class="st2" d="M15.4,33.1c-0.5-2.1,0.8-5,1.8-6.9c1.1-2.1,3.6-4.4,6.1-3.9c1.4,0.3,2.5,1.2,4,0.7
				c2-0.7,3.5-3.1,5.8-1.1c1.6,1.4,2.7,4.2,3.4,6.2c0.7,2.3,0.6,4.8-0.4,7c-0.6,2-1.9,3.8-3.5,5.1c-0.7,0.4-1.3,1-1.8,1.6
				c-0.5,0.9-1.1,1.8-1.7,2.6c-2.5,2.7-6.5,3.6-8.7,6.7c-0.2,0.3,0.3,0.6,0.5,0.3c2.5-3.3,7.1-4.1,9.4-7.5c0.6-1.2,1.5-2.3,2.5-3.1
				c0.9-0.6,1.6-1.4,2.3-2.2c1.2-1.8,2-3.8,2.4-5.9c0.3-2.3-0.1-4.7-1.2-6.8c-0.8-1.8-1.7-4-3.6-5c-1.6-0.8-2.9-0.1-4.2,0.9
				c-0.7,0.6-1.5,0.9-2.4,0.9c-0.6-0.1-1.1-0.3-1.6-0.5c-0.8-0.4-1.8-0.5-2.7-0.3c-2.2,0.7-4.1,2.2-5.1,4.3c-1,1.9-2.4,4.9-1.7,7.1
				C15.1,33.5,15.5,33.4,15.4,33.1L15.4,33.1z"/>
			<path id="Path_71" class="st2" d="M33.7,39.2c-2.5,2.1-5.6,3.6-8.1,5.7c-2.4,2-4.4,4.3-6.1,6.9c-0.1,0.1,0,0.3,0.1,0.3
				c0.1,0.1,0.3,0,0.3-0.1c1.8-2.6,4-5,6.4-7.1c2.4-2,5.2-3.5,7.5-5.6c0,0,0-0.1,0-0.1C33.8,39.2,33.7,39.2,33.7,39.2z"/>
			<path id="Path_72" class="st2" d="M31.3,41.3c-0.5-3.6,2.6-5.8,4-8.8c0.5-1.1,0.9-2.3,1.1-3.6c0.4-1,0.3-2.1-0.1-3.1
				c-0.2-0.3-0.7-0.1-0.5,0.3c0.7,1.3-0.1,3.5-0.5,4.9c-0.5,1.4-1.3,2.7-2.2,3.9c-1.4,1.9-2.8,4-2.1,6.4c0,0.1,0.1,0.1,0.2,0.1
				C31.3,41.5,31.3,41.4,31.3,41.3L31.3,41.3z"/>
			<path id="Path_73" class="st2" d="M26.4,22.8c-0.8,5.4-3.6,9.9-5.4,14.9c0,0.1,0,0.2,0.2,0.3c0.1,0,0.2,0,0.3-0.1
				c1.9-4.8,5-9.7,5.2-15.1c0-0.1,0-0.1-0.1-0.1C26.5,22.7,26.4,22.7,26.4,22.8L26.4,22.8z"/>
			<path id="Path_74" class="st2" d="M28.6,24c-1.4,3.5-2.7,6.9-4,10.4c-0.1,0.2,0.3,0.3,0.4,0.1c1.3-3.5,2.6-7,3.9-10.5
				C28.8,23.9,28.6,23.8,28.6,24z"/>
			<path id="Path_75" class="st2" d="M30.5,59.5c3.4,1.8,7.9,0.8,11.1-1c2.9-1.6,5.6-5.4,4.8-8.8c-0.4-2,0.9-3.7,0.4-5.7
				c-0.4-1.6-1.3-3-2.7-4c-2.2-1.7-7.3-3.7-9.7-1.5c-0.3,0.2,0,0.7,0.4,0.5c2.8-1.6,7.1-0.1,9.4,1.9c1.3,1.1,2.1,2.8,2.1,4.5
				c-0.1,1.3-0.9,2.3-0.7,3.7c0.3,0.9,0.3,1.9,0.2,2.8c-0.2,0.8-0.5,1.5-0.9,2.2c-0.8,1.5-1.9,2.7-3.3,3.5
				c-2.9,1.8-7.4,2.8-10.6,1.2C30.5,58.7,30.1,59.3,30.5,59.5z"/>
			<path id="Path_76" class="st2" d="M42.8,49.2c-2.3-1.2-5-0.8-7.5-0.4c-3.3,0.5-6.4,1.5-9.4,3c-0.3,0.1-0.1,0.5,0.2,0.4
				c2.6-1.2,5.4-2.1,8.2-2.7c2.6-0.5,5.8-1.2,8.2,0C42.8,49.7,43.1,49.4,42.8,49.2L42.8,49.2z"/>
			<path id="Path_77" class="st2" d="M28.7,58.3c2.6,2.1,6.6,0.1,9.2-0.9c1.9-0.8,3.9-1.5,5.8-2.3c1-0.4,2.2-0.7,2.2-2
				c0-0.2-0.1-0.3-0.3-0.4s-0.3,0.1-0.4,0.3l0,0c-0.1,1.2-2.8,1.8-3.7,2.1l-3.7,1.5c-2.7,1.1-6.2,2.9-9,1.4c-0.1,0-0.1,0-0.2,0.1
				C28.6,58.2,28.7,58.3,28.7,58.3z"/>
			<path id="Path_78" class="st2" d="M-0.4,46.8c-3.9-0.4-7.9,2.8-10.2,5.6c-1.3,1.5-2.2,3.3-2.9,5.2c-0.4,0.8-0.5,1.7-0.4,2.6
				c0.3,0.9,1.1,1.5,1.8,2.1c1,0.8,1.8,1.8,2.3,2.9c0.3,0.6,0.5,1.5,1.1,1.9c0.8,0.4,1.5-0.1,2.3,0.2c0.9,0.4,1.5,1.2,2.5,1.6
				c1.7,0.6,3.6,0.3,5-0.9c0.4-0.3,0.3-0.3,0.8-0.3c0.2,0,0.5,0.1,0.7,0.1c1-0.1,1.6-0.9,2.2-1.6c1.9-2.1,4.6-2.9,6.7-4.7
				c2.1-1.9,4-4,5.5-6.5c0.1-0.2,0-0.4-0.1-0.5c-0.1-0.1-0.3,0-0.4,0.1c-1.7,2.7-3.9,5.1-6.3,7.1C9,62.6,7.6,63,6.4,63.9
				c-1.1,0.8-3.2,4-4.6,2.9c-0.2-0.1-0.3,0-0.4,0.1c-1.4,1.7-3.9,2.2-5.8,1c-0.8-0.5-1.3-1.5-2.4-1.4c-0.9,0.2-1.9-0.3-2.3-1.2
				c-0.2-0.5-0.5-1.1-0.8-1.5c-1-1.3-3.4-2.5-3.5-4.2c-0.1-1.4,1-3.3,1.7-4.5c0.7-1.3,1.6-2.4,2.6-3.4c2.2-2.3,5.5-4.3,8.7-4.4
				c0.1,0,0.1,0,0.1-0.1C-0.3,46.9-0.3,46.8-0.4,46.8L-0.4,46.8z"/>
			<path id="Path_79" class="st2" d="M-6.3,66.7c4.2-4.1,9.6-6,15-8.2c0.3-0.1,0.1-0.5-0.2-0.5c-5.4,1.8-11.1,4.2-14.9,8.6
				C-6.5,66.6-6.4,66.7-6.3,66.7z"/>
			<path id="Path_80" class="st2" d="M-9.8,64.3c3.4-2.9,7.3-5.1,11.5-6.8c0.2-0.1,0.1-0.5-0.2-0.4c-4.2,1.6-8.1,3.9-11.4,7
				c0,0,0,0.1,0,0.2C-9.9,64.4-9.9,64.4-9.8,64.3z"/>
			<path id="Path_81" class="st2" d="M12.5,60.2c-0.8,1-1.2,2.3-1.1,3.6c-0.2,1.9-0.1,3.8,0.1,5.7c0.2,1.4,1,2.7,2.1,3.6
				c1.5,1.2,1.7,3.1,3.6,4c0.9,0.5,2.2,0.9,2.9,0c0.7-0.9,0.3-1.8,1.7-2.2c0.9-0.3,1.9-0.2,2.8-0.5c1.4-0.4,2.7-1.3,3.5-2.5
				c0.8-1.3,1-2.9,0.5-4.4c-0.3-1.5-0.8-2.9-0.1-4.3c0.4-0.6,0.6-1.3,0.7-2.1c0-1.8-1.4-3.3-2.7-4.4c-0.3-0.2-0.6,0.2-0.4,0.5
				c0.8,0.7,1.5,1.5,2.1,2.5c0.6,1.3,0.2,2.3-0.4,3.5c-0.6,1.4-0.1,3,0.2,4.5c0.5,2.4-0.1,4.4-2.4,5.6c-0.9,0.5-1.9,0.7-2.9,0.8
				c-0.7,0-1.4,0.2-2,0.5c-0.3,0.2-0.6,0.5-0.7,0.9c-0.1,0.2-0.1,0.4-0.2,0.7c-0.5,0.2-1,0.5-1.5,0.7c-0.5-0.1-1-0.4-1.4-0.7
				c-0.9-0.7-1-1.6-1.6-2.4c-0.5-0.7-1.2-1-1.8-1.6c-1.6-1.6-1.5-4.1-1.5-6.3c0-1.8-0.3-4,0.8-5.5C12.7,60.2,12.6,60.1,12.5,60.2
				L12.5,60.2z"/>
			<path id="Path_82" class="st2" d="M27.4,63.3c-2.2-2.3-4.5-4.6-6.9-6.8c-0.2-0.2-0.4,0.1-0.3,0.2c2.3,2.2,4.7,4.4,7,6.7
				C27.3,63.5,27.5,63.4,27.4,63.3L27.4,63.3z"/>
			<path id="Path_83" class="st2" d="M21.8,74.2c0.8-3.8,1-7.8,0.6-11.7c0-0.3-0.5-0.2-0.5,0c0.3,3.9,0.1,7.8-0.3,11.6
				c0,0.1,0,0.1,0.1,0.1C21.7,74.3,21.7,74.2,21.8,74.2L21.8,74.2z"/>
			<path id="Path_84" class="st2" d="M14.4,73.3c-0.3-4.6,0.4-9.2,2-13.5c0.1-0.2-0.3-0.4-0.4-0.1c-1.7,4.3-2.4,9-1.9,13.7
				C14.2,73.5,14.4,73.4,14.4,73.3L14.4,73.3z"/>
			<path id="Path_85" class="st2" d="M12.2,70.4c0.2-3.3,1.5-6.4,3.6-8.9c0.2-0.2-0.2-0.5-0.3-0.3c-2.3,2.5-3.5,5.8-3.5,9.2
				c0,0.1,0.1,0.1,0.1,0.1C12.1,70.6,12.2,70.5,12.2,70.4L12.2,70.4z"/>
			<path id="Path_86" class="st2" d="M39.4,72.5c-3.3-1-4.4-4.4-6.8-6.6c-0.4-0.5-1.1-0.7-1.7-0.6c-1.1,0.3-1.4,1.7-2.6,2
				c-0.1,0-0.2,0.2-0.2,0.3c0,0.1,0.2,0.2,0.3,0.2l0,0c0.7-0.2,1.3-0.7,1.7-1.2c0.2-0.2,0.5-0.6,0.7-0.7c0.7,0,1.3,0.3,1.8,0.8
				c0.5,0.5,1,1.1,1.4,1.7c1.4,1.9,2.8,3.8,5.2,4.6c0.1,0,0.3,0,0.3-0.2C39.6,72.7,39.5,72.5,39.4,72.5L39.4,72.5L39.4,72.5z"/>
			<path id="Path_87" class="st2" d="M27.5,72.8c1.5,2.2,3.8,5.4,6.8,5.5c3.4,0.1,4.9-3.3,7.4-4.9c0.1-0.1,0.2-0.2,0.1-0.4
				c-0.1-0.1-0.2-0.2-0.4-0.1c-1,0.5-1.9,1.3-2.6,2.3c-1,1.2-2.3,2.1-3.8,2.4c-3.3,0.6-5.4-3-7.4-5C27.6,72.6,27.4,72.7,27.5,72.8z"
				/>
			<path id="Path_88" class="st2" d="M29.8,66.1c-1.3-2-1.4-4.5-0.3-6.7c0.1-0.3-0.3-0.4-0.4-0.2c-1.3,2.2-1.1,5,0.6,7
				C29.8,66.3,29.9,66.2,29.8,66.1L29.8,66.1z"/>
			<path id="Path_89" class="st2" d="M28.7,61.1c2.5,0.7,4.8,1.5,6.7,3.4c1.6,1.8,2.9,3.7,4,5.8c0.2,0.3,0.6,0.1,0.4-0.2
				c-1.1-2.4-2.7-4.5-4.6-6.3c-1.9-1.6-4.2-2.5-6.6-2.8C28.6,60.9,28.6,61,28.7,61.1z"/>
			<path id="Path_90" class="st2" d="M42.1,57.6c1,1.4,1.7,3,2.2,4.7c0.4,1.7,0.4,3.5,0.1,5.2c0,0.3,0.4,0.4,0.5,0.1
				c0.9-3.3,0.1-7.7-2.6-10.1C42.2,57.4,42,57.5,42.1,57.6z"/>
			<path id="Path_91" class="st2" d="M41.6,72.5c0.5-2.3,1.8-4.4,3.6-6c1.4-1.2,2.6-2.6,3.3-4.3c1.4-3.5,0.6-7.4-2.1-10.1
				c-0.1-0.1-0.3-0.1-0.4,0c-0.1,0.1-0.1,0.3,0,0.4c3,3.5,3.6,8.3,0.4,11.9c-1.3,1.2-2.5,2.5-3.6,3.8c-0.9,1.2-1.4,2.7-1.5,4.2
				C41.3,72.7,41.5,72.7,41.6,72.5L41.6,72.5z"/>
			<path id="Path_92" class="st2" d="M45.9,52.7c1.5,3.9,0.4,7.9-0.6,11.8c0,0.1,0,0.2,0.1,0.3c0.1,0,0.2,0,0.3-0.1
				c1.3-3.8,2.3-8.2,0.4-12C46.1,52.5,45.9,52.6,45.9,52.7z"/>
			<path id="Path_93" class="st2" d="M46.3,51.3c1.4-2,4.2-1.7,6.2-0.9c2.5,1.1,3.2,3.3,2.5,5.9c-1.1,3.7-3.1,7-5.7,9.8
				c-0.2,0.2,0.1,0.6,0.3,0.4c1.9-1.9,3.4-4,4.5-6.4c1-2,2.2-4.7,1.6-7c-0.9-3.7-7.5-5.4-9.6-1.9c0,0.1,0,0.1,0,0.2
				C46.2,51.3,46.3,51.3,46.3,51.3L46.3,51.3L46.3,51.3z"/>
			<path id="Path_94" class="st2" d="M55.4,54c4.2-0.9,6.1,5.5,3.5,8.1c-2.2,2.2-5.1,3.8-7.5,5.6c-0.2,0.1,0,0.5,0.3,0.4
				c2.2-1.4,4.4-2.9,6.4-4.5c1.2-1,2.4-2,2.6-3.7c0.3-2.9-1.8-7.4-5.3-6.1C55.2,53.9,55.3,54.1,55.4,54z"/>
			<path id="Path_95" class="st2" d="M59.9,61.6c0,0.4,0,0.8,0,1.2c0,0.8-0.2,1.7-0.7,2.4c-0.5,0.8-1.2,1.5-2,2.1
				c-1.7,1.2-3.7,2.1-5.7,2.6c-2.2,0.6-4.4,1-6.6,1.5c-1.6,0.2-3.2,1-4.3,2.1c-0.1,0.2,0.1,0.4,0.2,0.3c2-1.8,4.6-2,7.1-2.5
				c2.1-0.4,4.2-1,6.2-1.7c1.8-0.6,3.4-1.6,4.7-3c0.5-0.6,1-1.2,1.3-1.9c0.5-1.1,0-1.9,0.1-3C60.2,61.5,60,61.5,59.9,61.6L59.9,61.6
				z"/>
			<path id="Path_96" class="st2" d="M48.4,71c3.4,1,7.3,2.5,10.6,0.6c2.9-1.7,3.8-4.8,1.6-7.5c-0.2-0.3-0.5,0-0.4,0.3
				c0.7,1.8,1.6,3.2,0.3,5c-0.9,1.2-2.2,2-3.7,2.4c-2.7,0.7-5.7-0.6-8.4-1C48.4,70.8,48.3,71,48.4,71L48.4,71z"/>
			<path id="Path_97" class="st2" d="M59.2,66.2c0.9-1.3,2.1-2.1,3.6-1.2c0.7,0.5,1.4,1.1,2.1,1.7c1.5,1.4,2.9,3.1,2.8,5.2
				c0,1.7-1.2,3-1.5,4.6c-0.1,0.5-0.1,1,0.1,1.5c0.3,0.6,0.4,1.3,0.3,2c-0.2,0.6-0.5,1.2-1,1.7c-2.7,2.9-7.1,2.1-10.4,0.9
				c-3.4-1.3-6.4-3.3-9.6-4.9c-0.3-0.2-0.6,0.3-0.3,0.5c4,2.2,8.1,4.9,12.7,5.9c3.2,0.6,8.8,0,9.2-4.2c0.1-1.2-0.7-2.2-0.4-3.5
				c0.3-1.1,0.9-2,1.2-3.1c0.4-1.8-0.1-3.6-1.2-5c-1-1.4-2.9-3.5-4.7-4c-1.6-0.5-2.8,0.6-3.4,1.9C58.8,66.2,59.1,66.3,59.2,66.2
				L59.2,66.2z"/>
			<path id="Path_98" class="st2" d="M33.3,77.6c-2,2-3.1,4.8-2.9,7.7c0.2,1.1,0,2.2-0.7,3.1c-0.3,0.4-0.5,0.8-0.6,1.2
				c-0.1,1.4,1.3,2.6,2.2,3.4c2,1.9,4.8,4,7.7,3.4c3.2-0.6,5.1-3.6,6-6.5c0-0.1,0-0.3-0.2-0.3c-0.1,0-0.3,0-0.3,0.2
				c-1,2.8-2.8,5.8-6,6.1c-2.8,0.3-5.6-2.1-7.5-4c-0.2-0.2-0.4-0.4-0.6-0.7c-0.4-0.6-0.6-1.4-0.6-2.2c0.1-0.4,0.6-0.8,0.8-1.2
				c0.3-0.7,0.4-1.4,0.3-2.2c-0.4-2.9,0.5-5.9,2.5-8.1C33.5,77.7,33.4,77.5,33.3,77.6z"/>
			<path id="Path_99" class="st2" d="M37.6,95.9c3.3-3.4,4.1-8.6,4.4-13.2c0-0.1-0.1-0.2-0.2-0.2s-0.2,0.1-0.2,0.2
				c-0.5,4.7-1.1,9.2-4.1,13.1C37.4,95.9,37.5,96,37.6,95.9z"/>
			<path id="Path_100" class="st2" d="M43.2,79.1c0.5,2.7,1,5.3,1.4,8c0.4,2.5,0.3,5.1,1,7.5c1,3.7,4.1,5.5,7.8,4.4
				c1.6-0.4,2.9-1.4,3.7-2.8c0.2-0.4,0.4-0.9,0.7-1.3c0.3-0.3,0.6-0.5,0.9-0.9c0.4-0.6,0.7-1.3,0.9-2c0-1.1,0.4-2.2,1-3.1
				c0.4-0.5,0.7-1.1,0.9-1.8c0.2-1.4-0.6-2.7-1.9-3.2c-0.4-0.2-0.6,0.4-0.2,0.6c1.1,0.5,1.7,1.7,1.4,2.8c-0.3,0.7-0.8,1.4-1.2,2
				c-0.7,1.3-0.3,2.8-1.1,4c-0.4,0.6-0.9,0.9-1.3,1.4c-0.4,0.5-0.5,1.2-0.9,1.7c-1.2,1.4-2.9,2.2-4.7,2.2c-4.9,0.2-5.5-4.8-5.9-8.5
				c-0.4-3.8-1.1-7.5-2.1-11.2c0-0.1-0.1-0.1-0.1-0.1C43.2,79,43.2,79,43.2,79.1z"/>
			<path id="Path_101" class="st2" d="M51.7,98.9c0.8-4.6-2.1-9.6-3.7-13.8c-0.1-0.3-0.6-0.1-0.5,0.2c0.7,2.2,1.7,4.2,2.5,6.4
				c0.4,1.1,0.8,2.3,1,3.5c0.2,1.2,0.2,2.5,0.5,3.8C51.5,99,51.7,99,51.7,98.9L51.7,98.9z"/>
			<path id="Path_102" class="st2" d="M53.8,98.7c-0.7-3.7-2.1-7.2-4.2-10.4c-0.1-0.2-0.5,0-0.4,0.2c1.7,3.3,3.2,6.7,4.3,10.2
				c0,0.1,0.1,0.1,0.1,0.1C53.8,98.8,53.8,98.7,53.8,98.7L53.8,98.7z"/>
			<path id="Path_103" class="st2" d="M57.2,94.8c-2.1-5.7-6.9-10.1-11.6-13.6c-0.2-0.2-0.5,0.2-0.3,0.3c4.6,4,9.3,7.7,11.7,13.4
				C57,95.2,57.2,95,57.2,94.8L57.2,94.8z"/>
			<path id="Path_104" class="st2" d="M47.3,80.3c4,1.8,7.4,4.8,9.7,8.6c0.1,0.2,0.5,0.1,0.4-0.2c-2.2-3.9-5.8-7-10-8.5
				C47.2,80.1,47.2,80.3,47.3,80.3z"/>
			<path id="Path_105" class="st2" d="M52.5,83.5c0.8,0.7,1.7,1.3,2.7,1.7c1.7,0.8,3,1.5,3.6,3.5c0,0.1,0.2,0.2,0.3,0.2
				c0.1,0,0.2-0.2,0.2-0.3C59,87.2,58.2,86,57,85.4c-1.4-0.8-2.9-1.5-4.4-2.1c-0.1,0-0.1,0-0.1,0.1C52.5,83.4,52.5,83.4,52.5,83.5z"
				/>
			<path id="Path_106" class="st2" d="M48.6,11.5c0.5-1,0.7-2.1,1.2-3.1C50.6,7,52.1,6,53.7,5.7c1.4-0.3,2.8-0.3,4.2-0.1
				c1,0.2,2,0.1,3-0.2c0.3-0.1,0.1-0.5-0.2-0.5c-3,0.2-6-0.6-8.8,0.8c-2.2,1.1-3.5,3.3-3.5,5.8C48.4,11.6,48.5,11.7,48.6,11.5z"/>
			<path id="Path_107" class="st2" d="M60.7,4.8c-0.5,1-0.9,2.1-0.9,3.3c-0.1,1.5-0.6,2.9-1.4,4.2c-0.1,0.1,0,0.3,0.1,0.4
				c0.1,0.1,0.2,0,0.3,0c2-1.7,1.6-5.3,2.3-7.6c0-0.1,0-0.2-0.1-0.2C60.9,4.8,60.8,4.8,60.7,4.8z"/>
			<path id="Path_108" class="st2" d="M60.8,5.1c0.7-0.3,1.4-0.4,2.1-0.2c0.5,0.2,0.9,0.5,1.4,0.8c0.2,0.1,0.4-0.2,0.3-0.4
				c-0.4-0.5-1-0.9-1.7-1c-0.8-0.1-1.6,0.1-2.3,0.4C60.5,4.9,60.6,5.2,60.8,5.1z"/>
			<path id="Path_109" class="st2" d="M64.1,5.1c-0.4,1.2-0.6,2.4-0.8,3.7c-0.3,1.3-1,2.5-1.9,3.4c-0.8,0.8-1.8,1.5-2.9,2
				c-1.4,0.5-2.8,0.7-4.3,0.6c-0.2,0-0.3,0.1-0.3,0.3c0,0.1,0.1,0.3,0.2,0.3c2.8,0.4,5.6-0.5,7.6-2.5c2.2-2.1,2.5-4.9,2.8-7.8
				C64.5,4.9,64.2,4.9,64.1,5.1z"/>
			<path id="Path_110" class="st2" d="M43.5-0.1c-1.3,0.9-1.8,3.1-2.1,4.6c-0.4,1.8-0.4,3.6,0.1,5.4c0.1,0.3,0.6,0.3,0.6,0
				c-0.2-3.2-0.5-7.1,1.6-9.8C43.8,0,43.6-0.1,43.5-0.1z"/>
			<path id="Path_111" class="st2" d="M43.4,0.1c1.6,0.4,3,1.1,4.3,2.1c0.9,0.6,1.5,1.4,1.9,2.4C49.9,5.4,50,6.2,50.3,7
				c0.1,0.3,0.6,0.1,0.6-0.2c-0.1-2-1-3.8-2.6-5c-1.3-1-3.1-2.1-4.9-2c-0.1,0-0.1,0.1-0.1,0.2C43.3,0,43.3,0.1,43.4,0.1z"/>
			<path id="Path_112" class="st2" d="M49.4,2.8c-0.5-1.1,2.2-2.7,3-2.9c1.2-0.3,2.7,0.5,3.8,0.7c1,0.2,2.1,0.3,3.1,0.7
				C60,1.4,60.6,1.7,61.1,2c0.9,0.7,0.8,1.5,0.7,2.5c0,0.4,0.6,0.5,0.7,0c0.2-1.8-0.1-2.7-1.8-3.5c-1.9-0.9-4-0.9-6-1.4
				c-1.4-0.6-3.1-0.3-4.3,0.8c-0.5,0.4-2.2,1.9-1.2,2.6C49.3,3,49.5,2.9,49.4,2.8z"/>
			<path id="Path_113" class="st2" d="M45.9,0.6c0.2-0.5,1.5-0.9,1.9-1c0.7-0.2,1.4-0.1,2.1,0.1c0.7,0.2,1.2,0.4,1.8,0.1
				c0.2-0.1,0.1-0.5-0.1-0.5c-1.5-0.1-2.6-0.7-4.1-0.3c-0.6,0.2-2.2,0.6-1.9,1.5c0,0.1,0.1,0.1,0.2,0.1C45.9,0.7,45.9,0.7,45.9,0.6z
				"/>
		</g>
		<g id="Group_3" transform="translate(28.737 45.796)">
			<path id="Path_114" class="st3" d="M23.7,31.7c-0.5,0.4-1.3,1.3-1.2,2c0.1,0.5,0.5,0.5,0.9,0.4c0.2-0.1,0.2-0.2,0.4,0
				c0,0,0,0.4,0,0.4c0,0.3,0.2,0.5,0.4,0.7c0.6,0.3,1.4-0.4,1.7-0.9c0.1-0.1,0-0.3-0.1-0.4c-0.1,0-0.2-0.1-0.3,0
				c-0.2,0.1-0.4,0.3-0.6,0.4c-0.2,0.1-0.5,0.3-0.6-0.1c0-0.1,0-0.2,0-0.3c0-0.3-0.2-0.5-0.5-0.6c-0.2,0-0.7,0.3-0.8,0.3
				c-0.3-0.2,0.6-1.5,0.8-1.8C24,31.8,23.8,31.7,23.7,31.7L23.7,31.7z"/>
			<path id="Path_115" class="st3" d="M25.1,34.8c0.4,0.2,0.3,0.2,0.5,0.6c0.2,0.3,0.4,0.5,0.7,0.5c0.9,0.2,1.5-0.5,1.9-1.2
				c-0.2,0-0.4-0.1-0.6-0.1c0.4,1.4,3.3-0.8,1.5-1.9c-0.2-0.1-0.6,0.1-0.4,0.4c0.2,0.3,0.3,0.7,0.1,1c0,0-0.6,0.6-0.6,0.4
				c0-0.2-0.2-0.3-0.4-0.2c-0.1,0-0.2,0.1-0.2,0.2c-0.1,0.2-0.2,0.5-0.4,0.6c-0.4,0.4-0.9,0.3-1.3-0.3c0-0.1-0.1-0.1-0.2-0.2
				c-0.1,0-0.3-0.1-0.4-0.1C25.1,34.4,24.9,34.7,25.1,34.8z"/>
			<path id="Path_116" class="st3" d="M29,32.7c0.7,0.1,1.4-0.3,1.6-0.9c0.1-0.6-0.3-1.1-0.8-1.2c-0.1,0-0.1,0-0.2,0
				c0.1,0.1,0.1,0.3,0.2,0.4c0.3-0.4,0.3-1.1-0.2-1.4c-0.1,0-0.1-0.1-0.2-0.1c-0.2-0.1-0.4,0.2-0.2,0.4c0.2,0.2,0.3,0.6,0.1,0.8
				c-0.1,0.2,0,0.4,0.2,0.4c0.3,0,0.5,0.2,0.5,0.5c0,0.1,0,0.1,0,0.2c-0.1,0.4-0.7,0.5-1,0.5c-0.1,0-0.2,0.1-0.2,0.2
				C28.8,32.6,28.9,32.7,29,32.7L29,32.7L29,32.7z"/>
			<path id="Path_117" class="st3" d="M26.2,32.6c2.3,1.4,5.4,1.8,8,2c2.9,0.3,5.8,0.3,8.7-0.2c0.4-0.1,0.2-0.6-0.1-0.6
				c-2.8,0.3-5.7,0.4-8.6,0.1c-2.7-0.3-5.3-1.2-8-1.6C26.2,32.5,26.1,32.5,26.2,32.6C26.1,32.6,26.2,32.6,26.2,32.6L26.2,32.6z"/>
			<path id="Path_118" class="st3" d="M39.3,34.3l-0.1,0.1c-0.3,0.1,0,0.6,0.2,0.4c0.5-0.3,1-0.7,1.5-1.2c0.5-0.4,1.2-1.2,1.8-1.2
				c-0.1-0.1-0.2-0.1-0.3-0.2c0.2,0.4-1.3,1.5-1.6,1.8c-0.2,0.2,0,0.5,0.3,0.4c0.7-0.4,2.5-1.5,1.9-2.5c-0.1-0.1-0.2-0.2-0.3-0.2
				c-0.6,0.1-1.1,0.4-1.6,0.8c-0.7,0.6-1.4,1.2-2,1.8c0.1,0.1,0.2,0.2,0.4,0.3c0,0,0-0.1,0.1-0.1c0.1-0.1,0-0.2-0.1-0.3
				C39.4,34.2,39.3,34.2,39.3,34.3L39.3,34.3z"/>
			<path id="Path_119" class="st3" d="M37.7,34.9c0.6,0.1,1.2,0.6,1.5,1.1c0.2,0.4,0.8,1.4,0.5,1.8c0.1,0,0.2-0.1,0.3-0.1
				c-0.5,0-1.1-0.9-1.3-1.2c-0.3-0.5-0.5-1.1-0.5-1.7c0-0.1-0.2-0.2-0.3-0.2C37.7,34.6,37.6,34.7,37.7,34.9c0,0.8,0.3,1.7,0.8,2.4
				c0.3,0.4,1.2,1.4,1.7,0.9c0.6-0.6-0.2-2-0.5-2.4c-0.4-0.8-1.2-1.2-2-1.1C37.6,34.7,37.6,34.7,37.7,34.9
				C37.6,34.9,37.6,34.9,37.7,34.9z"/>
			<path id="Path_120" class="st3" d="M34.1,34.5c0.4-0.4,0.8-0.7,1.3-1c0.2-0.1,1.8-1.3,2-1.1c0.2,0.3-3,1.5-3.3,1.6
				c-0.3,0.1-0.1,0.4,0.1,0.4c0.6,0,5-1.5,3.9-2.5c-0.5-0.5-1.8,0.4-2.2,0.6c-0.9,0.4-1.6,1.1-2.1,1.9c0,0.1,0,0.1,0.1,0.2
				C34.1,34.6,34.1,34.5,34.1,34.5L34.1,34.5z"/>
			<path id="Path_121" class="st3" d="M31.4,34.1c0,0.8,0.3,1.6,0.9,2.1c0.3,0.3,1,0.9,1.4,0.7c0.1,0,0.1-0.1,0.1-0.2
				c-0.1-0.7-0.4-1.4-0.9-1.9c-0.3-0.5-0.9-0.9-1.5-0.9c-0.3,0-0.4,0.5-0.1,0.5c0.5,0.1,1,0.4,1.2,0.9c0.3,0.4,0.6,0.9,0.7,1.4
				c0-0.1,0.1-0.2,0.1-0.3c-0.2-0.1-0.4-0.2-0.6-0.3c-0.2-0.1-0.4-0.3-0.5-0.5c-0.3-0.5-0.6-1-0.8-1.5C31.6,34,31.5,34,31.4,34.1
				C31.4,34,31.4,34.1,31.4,34.1L31.4,34.1z"/>
			<path id="Path_122" class="st3" d="M28.8,33c0.1,0.1,0.3,0.2,0.5,0c0,0,0,0,0,0c0.1,0,0.2-0.1,0.3-0.1c0.2-0.1,0.4-0.2,0.6-0.2
				c0.2-0.1,0.5-0.2,0.7-0.3c0.2-0.1,0.5-0.1,0.6-0.2c0.4-0.5-0.3,0-0.4,0.1c-0.2,0.1-0.5,0.2-0.7,0.3c-0.5,0.1-0.9,0.2-1.4,0.3
				c-0.3,0.1-0.1,0.5,0.1,0.5c0.9,0,1.7-0.3,2.4-0.8c0.3-0.2,0.9-0.7,0.4-1c-0.4-0.3-1.3,0.3-1.7,0.5c-0.4,0.2-1.5,0.5-1.5,1
				c0,0.1,0.1,0.1,0.1,0.1c0,0,0,0,0,0c0,0,0,0,0,0c0.1,0,0.1-0.1,0.1-0.1v0C28.9,33.1,28.9,33,28.8,33C28.8,33,28.8,33,28.8,33z"/>
			<path id="Path_123" class="st3" d="M27,33c-0.1,0.6-0.1,1.2,0,1.9c0,0.4,0.1,1,0.7,0.9c0.4-0.1,0.5-0.6,0.5-1
				c0-0.6-0.1-1.2-0.3-1.8c0-0.1-0.2-0.2-0.3-0.2c-0.1,0-0.1,0.1-0.2,0.2c-0.1,0.3-0.1,0.6,0,0.9c0.1,0.4,0.2,0.8,0.2,1.2
				c-0.1,0.2,0,0.3,0,0.1c0.1-0.1,0.1-0.2,0-0.3c0-0.2-0.1-0.4-0.1-0.6c-0.1-0.5,0-0.9-0.1-1.4C27.3,33,27.2,32.9,27,33
				C27.1,33,27,33,27,33z"/>
			<path id="Path_124" class="st3" d="M0.8,11.5c-2.3-3.8-6-6.7-9.8-9c-0.1-0.1-0.3,0-0.3,0.1c-0.1,0.1,0,0.2,0.1,0.3
				c3.5,2.7,7.1,5,9.6,8.8C0.6,12,1,11.8,0.8,11.5L0.8,11.5z"/>
			<path id="Path_125" class="st3" d="M-1,7c0.3,0.4,0.5,0.8,0.6,1.2c0.1,0.2,0.3,0.2,0.5,0.1c0.1,0,0.1-0.1,0.1-0.1
				c0.1-0.2,0.7-1.4,1-1.1C1.3,7.4,1.1,7.9,1,8C0.9,8.2,0.8,8.5,0.7,8.7c0,0.1,0,0.3,0.2,0.3C1,9.1,1.1,9,1.1,9
				c0.6-0.5,1.2-1.8,0.4-2.4c-0.9-0.7-1.7,0.8-2,1.4c0.2,0,0.4,0,0.6,0C0,7.4-0.3,6.9-0.7,6.5C-1,6.2-1.4,6.8-1,7z"/>
			<path id="Path_126" class="st3" d="M1.1,9.1C1.2,9,1.7,8.7,1.9,8.7c0.3,0.1,0,0.4-0.1,0.6C1.7,9.5,1.8,9.8,1.9,9.9
				c0.2,0.2,0.6,0,0.8,0.1c0.3,0.1,0.1,0.1-0.1,0.2c-0.2,0.2-0.4,0.3-0.6,0.5c-0.1,0.1-0.1,0.3,0,0.4c0.1,0.1,0.2,0.1,0.3,0.1
				c0.5-0.2,1.6-0.6,1.4-1.3C3.6,9.7,3.4,9.5,3.1,9.4c-0.3-0.1-0.7,0-0.9-0.1c0.1,0.1,0.1,0.2,0.2,0.2C2.3,9.3,2.6,8.9,2.6,8.6
				c0-0.2-0.1-0.3-0.3-0.4C1.8,8,1.2,8.6,0.9,8.9C0.7,9,0.9,9.3,1.1,9.1z"/>
			<path id="Path_127" class="st3" d="M-1.4,7.6C-1.8,7.4-2.3,7.6-2.6,8c-0.3,0.4,0,0.7,0.4,0.9c0-0.1-0.1-0.3-0.1-0.4
				C-2.5,8.8-2.8,8.8-3,9.1c-0.2,0.2-0.2,0.5-0.2,0.7c0.1,0.4,0.5,0.7,0.9,0.7c0.1,0,0.2,0,0.3-0.1c0.1-0.1,0.2-0.2,0.1-0.4
				C-2,9.9-2,9.8-2.1,9.8c-0.1,0-0.3,0-0.4-0.1c-0.1-0.2,0.1-0.3,0.2-0.4C-2.1,9.2-1.9,9-1.8,8.9c0.1-0.1,0-0.3-0.1-0.4
				c0,0,0,0-0.1,0C-2.2,8.3-2,8.2-1.8,8.1C-1.7,8-1.5,7.9-1.4,7.8C-1.3,7.8-1.2,7.7-1.4,7.6C-1.3,7.6-1.3,7.6-1.4,7.6z"/>
			<path id="Path_128" class="st3" d="M-2.1,10.2c-0.5,0.2-0.8,0.6-0.9,1.2c-0.1,0.7,0.6,0.6,1,0.5c-0.1-0.2-0.2-0.4-0.3-0.6
				c-0.4,0.4-1,1.2-0.4,1.7c0.5,0.4,1.5-0.2,1.7-0.7c0.1-0.1,0-0.3-0.1-0.4c-0.1,0-0.1,0-0.2,0c-0.3,0.1-0.5,0.3-0.8,0.4
				c-0.1,0-0.1,0.2-0.1-0.1c0.1-0.2,0.2-0.4,0.4-0.6c0.2-0.2-0.1-0.6-0.3-0.5c-0.1,0-0.2,0-0.2,0.1c0,0,0.1-0.3,0.1-0.3
				c0.1-0.2,0.2-0.4,0.4-0.5C-1.7,10.3-1.9,10.1-2.1,10.2z"/>
			<path id="Path_129" class="st3" d="M-1.5,12.1c-0.2,0.5-0.1,1.1,0.4,1.5c0.6,0.3,0.9-0.3,1.2-0.7c-0.2,0-0.4,0-0.6,0
				c0.2,0.3,0.1,0.5,0.4,0.7c0.2,0.1,0.4,0.1,0.6,0C1,13.1,1.3,12.6,1.2,12c0-0.3-0.4-0.3-0.5-0.1c-0.1,0.2-0.2,0.5-0.3,0.8
				c0,0.1-0.1,0.1-0.1,0.2c0,0,0-0.1,0-0.1c-0.1-0.1-0.1-0.2-0.2-0.3c-0.1-0.1-0.3-0.1-0.5,0c0,0,0,0-0.1,0.1
				c-0.1,0.1-0.1,0.2-0.2,0.4C-0.8,13-0.9,13-1,12.8c-0.1-0.2-0.1-0.5-0.2-0.7C-1.3,12-1.4,12-1.5,12.1C-1.5,12-1.5,12.1-1.5,12.1z"
				/>
			<path id="Path_130" class="st3" d="M0.8,12.4c-0.2,0.4-0.1,0.9,0.2,1.1c0,0,0,0,0,0c0.2,0.1,0.5,0.1,0.7,0
				c0.1-0.1,0.2-0.2,0.3-0.3c0.1-0.1,0.2-0.4,0.3-0.4c-0.1,0-0.2,0-0.3,0c1.3,0.5,1.7-2.1,0.4-1.9c-0.2,0-0.3,0.2-0.2,0.3
				c0.1,0.3,0.3,0.4,0.2,0.7c-0.1,0.4-0.3,0.1-0.5,0.3c-0.2,0.1-0.3,0.3-0.4,0.5s-0.4,0.4-0.5,0.1C1,12.7,1,12.6,1,12.5
				C1,12.4,0.8,12.3,0.8,12.4L0.8,12.4z"/>
			<path id="Path_131" class="st3" d="M0.2,10.7c0.1-0.1,0.1-0.1,0.2-0.2c0.1-0.1,0.2-0.1,0.2,0c0.1,0.1,0,0.2,0.1,0.3
				c0.1,0.2,0.3,0.3,0.5,0.2c0.2,0,0.3-0.3,0.2-0.5c-0.2-0.1-0.1-0.4-0.2-0.6C1,10,0.8,9.9,0.7,9.9C0.3,9.8,0,10.1-0.2,10.4
				c-0.1,0.1,0,0.3,0.1,0.3C0,10.8,0.1,10.8,0.2,10.7z"/>
			<path id="Path_132" class="st3" d="M-0.6,10.4c-0.4,0.2-0.8,0.7-0.6,1.2c0.3,0.5,1,0.2,1.2-0.2c0.1-0.1,0-0.3-0.1-0.4
				c-0.1,0-0.2-0.1-0.3,0c-0.1,0-0.2,0.1-0.3,0.1c0,0-0.1,0-0.1,0c0.1,0.2,0.1,0.2,0.1,0.1c0-0.1,0.1-0.2,0.1-0.3
				c0-0.1,0.1-0.2,0.2-0.3c0.1-0.1,0-0.2-0.1-0.3C-0.5,10.4-0.5,10.4-0.6,10.4z"/>
			<path id="Path_133" class="st3" d="M-0.2,10C0.1,9.5,0.6,10,1,9.8c0.1-0.1,0.2-0.2,0.1-0.4c0-0.1-0.1-0.1-0.2-0.1
				c-0.3-0.1-0.6,0-0.9,0c-0.3,0.1-0.5,0.3-0.6,0.6C-0.7,10.1-0.4,10.2-0.2,10L-0.2,10z"/>
			<path id="Path_134" class="st3" d="M27.4,32.2C27.4,32.2,27.4,32.2,27.4,32.2c0.1-0.1,0.2-0.3,0.1-0.4c0,0,0,0,0-0.1
				c-0.1-0.3-0.6-0.2-0.7,0.1c0,0.2,0.1,0.4,0.3,0.4C27.2,32.3,27.3,32.3,27.4,32.2z"/>
			<path id="Path_135" class="st3" d="M27.2,31.7c-0.4-0.2-0.9,0.2-1.2,0.5c-0.4,0.4-0.5,1-0.3,1.5c0.1,0.3,0.5,0.3,0.5,0
				c0-0.4,0.1-0.8,0.3-1.1c0.2-0.3,0.6-0.4,0.7-0.7C27.3,31.9,27.3,31.8,27.2,31.7L27.2,31.7z"/>
			<path id="Path_136" class="st3" d="M24.3,32.1c0,0.1,0,0.1,0,0.2c0,0.1,0.1,0.2,0.2,0.2c0.2,0,0.3-0.1,0.4-0.1
				c0.1,0,0.1-0.1,0.2-0.1c0,0.1,0.1,0.3,0.1,0.4c0,0.2,0.2,0.3,0.4,0.2c0.1,0,0.2-0.1,0.2-0.2c0.2-0.4,0-0.9-0.4-1.1
				c-0.4-0.2-0.7,0.2-1,0.4l0.2,0l0,0C24.5,32,24.4,32,24.3,32.1C24.3,32.1,24.3,32.1,24.3,32.1z"/>
			<path id="Path_137" class="st3" d="M28,30.5c-0.6-0.3-1.1,0.3-0.8,0.9c0.1,0.3,0.4,0.4,0.7,0.5c0.2,0,0.3,0,0.5,0.1
				c0.1,0,0.1,0,0.1,0.1c0,0,0,0.1,0,0c0,0.2,0.1,0.5,0.4,0.4c0.3-0.1,0.5-0.4,0.4-0.8c0-0.1-0.1-0.2-0.2-0.3
				c-0.2-0.2-0.4-0.3-0.6-0.3c-0.1,0-0.9-0.1-0.4-0.3C28.1,30.8,28.1,30.7,28,30.5C28,30.6,28,30.5,28,30.5z"/>
			<path id="Path_138" class="st3" d="M26.1,30.6L26.1,30.6c-0.5,0-0.4,0.7,0,0.6c0.1,0,0.1,0,0.2,0C26.2,31,26.1,30.8,26.1,30.6
				c-0.5,0.1-0.8,0.4-1.1,0.8c-0.2,0.2,0.1,0.5,0.4,0.4c0.4-0.2,0.7-0.4,1-0.7C26.8,30.9,26.4,30.4,26.1,30.6c-0.1,0-0.2,0-0.2,0.1
				l0.4,0.4c0.1-0.1,0.1-0.2,0.1-0.3C26.4,30.7,26.3,30.6,26.1,30.6z"/>
			<path id="Path_139" class="st3" d="M-8.6,3c-1-0.4-1.9-0.8-2.8-1.4c-0.4-0.3-0.8-0.6-1.2-0.9c-0.2-0.2-0.4-0.5-0.6-0.7
				c-0.2-0.3-0.4-0.4,0-0.3C-11.3,0.1-10.2,2-8.8,3c0.3,0.2,0.6-0.2,0.4-0.4c-0.9-0.9-1.9-1.8-3-2.6c-0.4-0.3-1.9-1.4-2.4-0.8
				c-0.6,0.7,0.9,2,1.3,2.3C-11.4,2.4-10,3-8.6,3.2C-8.5,3.2-8.5,3-8.6,3L-8.6,3z"/>
			<path id="Path_140" class="st3" d="M-5.9,4.9c-0.4-0.8-0.7-1.7-0.8-2.6c-0.1-0.5-0.1-0.9-0.1-1.4c0-0.2,0-1.6,0.3-1.2
				C-6,0.2-6.2,1.5-6.2,2.1c0,0.8-0.1,1.6-0.1,2.4c0,0.3,0.4,0.4,0.5,0.1C-5.6,4-5.2-1.6-6.7-0.9c-0.7,0.3-0.6,1.6-0.6,2.3
				C-7.1,2.4-6.9,4.3-6,5C-5.9,5.1-5.8,5-5.9,4.9L-5.9,4.9z"/>
			<path id="Path_141" class="st3" d="M-4.7,5.9c-0.8-0.4-1.8-0.5-2.7-0.3c-0.5,0.1-2,0.5-2.1,1.2c-0.3,1.5,4.4-0.2,5-0.5
				C-4.4,6.2-4.3,6-4.4,5.9c-0.1-0.1-0.2-0.2-0.4-0.1c-0.7,0.3-1.4,0.6-2.1,0.8c-0.4,0.1-1.8,0.4-1.9,0.2C-8.8,6.4-7.2,6-7,5.9
				c0.7-0.1,1.5-0.1,2.2,0.1C-4.7,6.1-4.6,5.9-4.7,5.9L-4.7,5.9z"/>
			<path id="Path_142" class="st3" d="M-3,7.1c0-0.4-0.4-4.3-0.1-4.2C-2.8,2.9-3,4.5-3,4.7C-3.1,5.5-3.3,6.2-3.4,7
				c0,0.2,0.1,0.3,0.3,0.3C-3,7.3-3,7.3-3,7.1c0.4-0.6,1.5-5-0.1-5c-1.5,0-0.4,4.4-0.1,5.1C-3.2,7.2-3.1,7.2-3,7.1
				C-3,7.2-3,7.2-3,7.1z"/>
			<path id="Path_143" class="st3" d="M8.6,4.7c0.2,0,0.2-0.2,0.2-0.3S8.7,4.1,8.5,4.1c-0.2,0-0.2,0.2-0.2,0.4
				C8.4,4.6,8.5,4.7,8.6,4.7z"/>
		</g>
	</g>
	<path id="_5SC6UGdOkYfkXeSNty3Vl-2" class="st0" d="M58.9,178.9L58.9,178.9c-0.2,0-0.4-0.1-0.5-0.3c-0.1-0.2-0.2-0.5-0.2-0.7l0,0
		l0.5-14.6c0.1-0.6,0-1.2-0.2-1.8c-0.2-0.3-0.3-0.7-0.3-1.1l0,0c0-0.4,0.3-0.8,0.8-0.8c0,0,0,0,0.1,0l0,0l6.8,0.1
		c0.2,0,0.5,0,0.7,0.1c0.2,0.1,0.3,0.3,0.3,0.5l0,0c0,0.2,0,0.4-0.2,0.6c-0.2,0.2-0.5,0.4-0.7,0.5l0,0l-1.2,0.3c-1,0.2-2,0.6-2.9,1
		c-0.6,0.3-1.1,0.8-1.5,1.4c-0.3,0.6-0.5,1.4-0.5,2.1l0,0l-0.1,3.2c0.5,0.1,1.1,0.4,2.1,0.7c0.9,0.3,2,0.6,3.3,1
		c1.2,0.4,2.6,0.8,4,1.2s2.8,0.8,4.2,1.2l3.9,1.2l3.1,0.9c0.9,0.3,1.5,0.4,1.8,0.5l0,0c0.3,0.1,0.6,0.1,0.8,0.1
		c0.2,0,0.4-0.2,0.4-0.6l0,0l0.3-2c0-0.2,0.1-0.3,0.2-0.5c0.1-0.1,0.3-0.2,0.4-0.1l0,0c0.2,0,0.4,0.1,0.5,0.3
		c0.1,0.2,0.2,0.5,0.2,0.8l0,0l-0.4,11.2c0,0.2-0.1,0.4-0.2,0.6c-0.1,0.1-0.3,0.2-0.5,0.2l0,0c-0.2,0-0.3-0.1-0.5-0.2
		c-0.1-0.2-0.2-0.3-0.3-0.5l0,0L83,184c0-0.3-0.2-0.5-0.4-0.6c-0.2-0.2-0.5-0.3-0.8-0.4l0,0c-0.4-0.1-1.1-0.3-1.9-0.6
		c-0.9-0.3-1.9-0.6-3-0.9c-1.2-0.4-2.4-0.7-3.7-1.1s-2.6-0.8-3.9-1.2c-1.3-0.4-2.5-0.7-3.6-1.1s-2.1-0.6-2.9-0.9
		c-0.8-0.2-1.4-0.4-1.7-0.5l0,0c-0.3-0.1-0.6-0.1-0.9-0.1c-0.2,0.1-0.3,0.3-0.4,0.5l0,0l-0.3,1.2c-0.1,0.2-0.2,0.3-0.3,0.4
		C59.2,178.9,59.1,178.9,58.9,178.9z M72.3,175.8l-1.3-0.5l0.2-5.2c0.1-0.8-0.2-1.6-0.7-2.2c-0.7-0.7-1.5-1.1-2.5-1.3l0,0
		c-0.2-0.1-0.3-0.2-0.4-0.3c-0.1-0.1-0.1-0.3-0.1-0.4l0,0c0-0.2,0.1-0.4,0.2-0.5c0.2-0.1,0.4-0.2,0.6-0.2l0,0l7.2-0.6
		c0.3-0.1,0.5,0,0.7,0.1c0.2,0.1,0.2,0.3,0.2,0.5l0,0c0,0.2-0.1,0.3-0.2,0.4c-0.1,0.1-0.3,0.2-0.4,0.3l0,0c-0.6,0.2-1.3,0.5-1.8,0.9
		c-0.5,0.3-0.9,0.8-1.1,1.3c-0.3,0.7-0.4,1.4-0.4,2.1l0,0L72.3,175.8z M62.7,141.7L62.7,141.7c0.2-1,0.7-1.9,1.4-2.5
		c0.6-0.4,1.3-0.6,2-0.4l0,0c0.6,0.1,1.1,0.5,1.4,1c0.3,0.6,0.4,1.2,0.2,1.8l0,0c-0.1,0.4-0.3,0.9-0.6,1.2c-0.3,0.3-0.6,0.7-0.9,0.9
		c-0.3,0.3-0.6,0.6-0.9,0.9c-0.3,0.3-0.4,0.6-0.5,0.9l0,0c-0.1,0.2-0.1,0.5,0,0.7c0.1,0.2,0.2,0.4,0.4,0.6c0.2,0.2,0.4,0.3,0.7,0.4
		l0,0c0.4,0.1,0.7,0.1,1.1,0c0.4-0.1,0.8-0.2,1.2-0.4c0.5-0.2,1-0.3,1.5-0.4c0.6-0.1,1.2-0.1,1.7,0c0.7,0.1,1.4,0.4,2.1,0.8l0,0
		l9.2,5.5c0.6,0.4,1.2,0.7,1.9,0.8c0.3,0.1,0.6-0.1,0.7-0.4l0,0c0.1-0.3,0-0.5-0.1-0.8c-0.2-0.4-0.3-0.7-0.6-1.1l0,0
		c-0.1-0.2-0.2-0.3-0.2-0.5c0-0.1,0-0.2,0.1-0.3l0,0c0.1-0.1,0.3-0.2,0.4-0.1c0.3,0.1,0.5,0.2,0.7,0.4l0,0c0.6,0.5,1.1,1.1,1.4,1.8
		c0.4,0.8,0.6,1.6,0.7,2.4c0.1,0.9,0,1.9-0.2,2.8l0,0c-0.1,0.8-0.5,1.5-1.1,2c-0.5,0.4-1.2,0.5-1.8,0.3c-0.9-0.2-1.7-0.6-2.4-1l0,0
		l-15.7-9.3c-1.5-0.8-2.8-2.1-3.5-3.6C62.4,144.8,62.3,143.2,62.7,141.7L62.7,141.7z M78.1,130.3L78.1,130.3c0.7-1.4,1.7-2.7,3-3.6
		c1.1-0.8,2.5-1.2,3.9-1.1c1.6,0.1,3.1,0.7,4.4,1.6l0,0c1.1,0.8,2.1,1.7,2.9,2.8c0.8,1,1.4,2.2,1.7,3.4c0.3,1.3,0.5,2.6,0.3,3.9
		c-0.1,1.4-0.6,2.8-1.2,4.1l0,0c-0.6,1.4-1.6,2.7-2.9,3.6c-1.1,0.8-2.5,1.2-3.9,1.1c-1.6-0.1-3.1-0.7-4.4-1.6l0,0
		c-1.1-0.8-2.1-1.7-3-2.8c-0.8-1-1.4-2.2-1.7-3.4c-0.3-1.2-0.5-2.5-0.3-3.8C77.1,132.9,77.5,131.6,78.1,130.3L78.1,130.3z
		 M91.7,140.7L91.7,140.7c0.2-0.4,0.2-0.9,0.1-1.3c-0.2-0.6-0.5-1.2-0.8-1.7c-0.5-0.7-1-1.3-1.5-1.9c-0.6-0.7-1.3-1.3-2-2
		c-0.7-0.6-1.5-1.2-2.4-1.8l0,0c-0.8-0.6-1.6-1.1-2.5-1.5c-0.5-0.3-1.2-0.4-1.8-0.4c-0.4,0-0.8,0.3-1.1,0.7l0,0
		c-0.2,0.4-0.3,0.9-0.1,1.3c0.2,0.6,0.5,1.2,0.8,1.7c0.5,0.7,1,1.3,1.5,1.9c0.6,0.7,1.3,1.4,2.1,2c0.8,0.6,1.6,1.2,2.4,1.8l0,0
		c0.8,0.6,1.6,1.1,2.5,1.5c0.5,0.3,1.2,0.4,1.8,0.3C91.1,141.3,91.5,141.1,91.7,140.7z M89.6,120.1L89.6,120.1
		c-0.1,0.1-0.3,0-0.4-0.1c-0.2-0.2-0.3-0.4-0.4-0.6l0,0c-0.3-0.8-0.5-1.6-0.6-2.5c0-0.9,0.1-1.7,0.3-2.6c0.3-0.8,0.7-1.6,1.2-2.3
		l0,0c0.4-0.6,0.9-1,1.6-1.1c0.6-0.1,1.1,0.1,1.6,0.5l0,0c0.4,0.4,0.8,0.8,1.1,1.2c0.4,0.5,0.7,1.1,1.1,1.7c0.4,0.6,0.7,1.2,1.1,1.8
		c0.4,0.6,0.8,1.2,1.3,1.7l0,0l-0.3,0.2c-0.9-1.2-1.7-2.5-2.3-3.9c-0.5-1.1-0.9-2.2-1.1-3.4c-0.2-0.9-0.2-1.9,0-2.8
		c0.1-0.8,0.4-1.5,0.9-2.1l0,0c0.5-0.7,1.3-1.2,2.2-1.2c0.9,0.1,1.8,0.5,2.4,1.1l0,0c0.6,0.5,1,1.1,1.3,1.8c0.3,0.6,0.3,1.2,0.3,1.9
		c-0.1,0.6-0.3,1.2-0.7,1.6l0,0c-0.3,0.5-0.8,0.8-1.3,0.9c-0.4,0.1-0.9,0-1.3-0.3l0,0c-0.2-0.2-0.5-0.4-0.6-0.7
		c-0.2-0.2-0.4-0.5-0.6-0.6l0,0c-0.2-0.1-0.4-0.2-0.6-0.2c-0.2,0-0.4,0.1-0.5,0.3l0,0c-0.3,0.4-0.3,0.9-0.2,1.4
		c0.1,0.9,0.4,1.7,0.8,2.5c0.6,1.2,1.3,2.4,2.1,3.5l0,0c0.5,0.8,1,1.4,1.4,1.9c0.3,0.4,0.7,0.8,1.1,1.1l0,0c0.2,0.2,0.5,0.3,0.8,0.3
		c0.2,0,0.5,0,0.7-0.1c0.2,0,0.5,0,0.7,0.2l0,0c0.3,0.3,0.4,0.8,0.4,1.2c-0.1,0.7-0.2,1.4-0.6,2.1c-0.4,0.9-1,1.8-1.6,2.6l0,0
		c-0.3,0.5-0.8,0.8-1.4,1c-0.5,0.1-0.9,0-1.3-0.4c-0.5-0.4-1-0.9-1.3-1.5l0,0l-5.1-7.6c-0.3-0.6-0.7-1.1-1.3-1.4
		c-0.3-0.2-0.6-0.1-0.8,0.1l0,0c-0.1,0.2-0.2,0.4-0.2,0.7c0,0.4,0,0.9,0.1,1.3l0,0c0,0.2,0,0.4,0,0.5
		C89.7,120,89.7,120.1,89.6,120.1z M109.4,106.6l-0.9-0.8l0.4-0.6l0.9-1.5c0.4-0.6,0.8-1.3,1.2-2s0.9-1.4,1.3-2
		c0.4-0.7,0.8-1.2,1-1.7l0,0l-0.1,0.8c-0.2-0.5-0.5-1-0.8-1.5c-0.4-0.6-0.8-1.2-1.3-1.8l0,0c-0.4-0.5-0.9-0.9-1.4-1.1
		c-0.4-0.2-0.9-0.1-1.2,0.1l0,0c-0.4,0.3-0.6,0.8-0.6,1.2c-0.1,0.6-0.1,1.3,0.1,1.9c0.2,0.8,0.4,1.7,0.8,2.5c0.4,1,0.9,1.9,1.5,2.8
		l0,0c0.8,1.3,1.9,2.3,3.3,2.9c1.2,0.3,2.4,0,3.3-0.9l0,0c0.5-0.4,0.9-1,1.2-1.6c0.3-0.6,0.5-1.3,0.6-2c0.1-0.8,0-1.5-0.1-2.3l0,0
		c0-0.2,0-0.5,0.1-0.7c0-0.2,0.1-0.3,0.3-0.4l0,0c0.2-0.1,0.4-0.1,0.5-0.1c0.2,0.1,0.4,0.4,0.5,0.6l0,0c0.5,1.2,0.7,2.5,0.7,3.7
		c0,1.3-0.4,2.6-1,3.8c-0.7,1.4-1.7,2.6-2.9,3.6l0,0c-1,1-2.3,1.6-3.7,2c-1.2,0.2-2.4,0.1-3.5-0.5c-1.2-0.7-2.3-1.7-3-2.8l0,0
		c-0.8-1.2-1.4-2.5-1.8-3.9c-0.4-1.3-0.5-2.7-0.4-4.1c0.1-1.4,0.5-2.7,1.1-4c0.6-1.3,1.5-2.4,2.6-3.3l0,0c0.8-0.7,1.7-1.2,2.8-1.5
		c0.8-0.2,1.7-0.1,2.5,0.2c0.8,0.3,1.5,0.8,2.1,1.4l0,0c0.1,0.1,0.3,0.2,0.5,0.3c0.2,0.1,0.4,0,0.5,0l0,0c0.1-0.1,0.2-0.1,0.3-0.1
		c0.1,0,0.2,0.1,0.3,0.2l0,0c0.1,0.1,0.2,0.3,0.2,0.5c0,0.3-0.1,0.5-0.3,0.8l0,0c-0.2,0.4-0.6,0.9-1.1,1.6l-1.5,2.4
		c-0.6,0.9-1.2,1.8-1.7,2.7c-0.6,0.9-1.1,1.8-1.6,2.5c-0.5,0.8-0.9,1.4-1.2,1.9L109.4,106.6L109.4,106.6z M131.6,97.2L131.6,97.2
		c1-0.5,1.4-1.8,0.9-2.8c0,0,0-0.1-0.1-0.1l0,0c-0.2-0.3-0.5-0.6-0.8-0.9c-0.4-0.2-0.9-0.4-1.3-0.5c-0.7-0.1-1.5-0.2-2.2-0.2l0,0
		c-1-0.1-1.9-0.2-2.8-0.4c-0.7-0.1-1.4-0.4-1.9-0.8c-0.5-0.4-1-0.9-1.3-1.5l0,0c-0.5-0.9-0.7-2-0.5-3c0.2-1.2,0.7-2.3,1.4-3.3
		c1-1.2,2.1-2.2,3.5-3l0,0c1-0.6,2.2-1.1,3.3-1.3c0.8-0.2,1.7-0.1,2.5,0.2c0.7,0.3,1.2,0.7,1.6,1.3l0,0c0.3,0.5,0.5,1.1,0.4,1.7
		c-0.1,0.5-0.4,0.9-0.8,1.2l0,0c-0.5,0.3-1,0.4-1.6,0.2c-0.8-0.3-1.4-0.7-2-1.2l0,0c-0.5-0.5-1.1-0.8-1.8-0.9
		c-0.6-0.1-1.1,0-1.6,0.3l0,0c-0.5,0.3-0.9,0.7-1,1.3c-0.1,0.6,0,1.2,0.3,1.7l0,0c0.2,0.4,0.5,0.7,0.8,0.9c0.5,0.3,1,0.5,1.5,0.6
		c0.9,0.2,1.8,0.3,2.7,0.4l0,0c1,0,1.9,0.2,2.9,0.4c0.7,0.1,1.3,0.4,1.8,0.8c0.5,0.4,0.9,0.9,1.1,1.5l0,0c0.5,0.9,0.6,2,0.4,3
		c-0.3,1.2-0.8,2.2-1.6,3.1c-1,1.1-2.1,2.1-3.4,2.8l0,0c-1.1,0.7-2.3,1.2-3.6,1.4c-0.9,0.2-1.8,0.1-2.7-0.3
		c-0.7-0.3-1.3-0.8-1.6-1.4l0,0c-0.3-0.5-0.4-1-0.4-1.6c0.1-0.5,0.4-0.9,0.8-1.1l0,0c0.5-0.3,1.1-0.4,1.7-0.2c0.7,0.3,1.4,0.7,2,1.2
		l0,0c0.6,0.5,1.2,0.8,1.9,1C130.5,97.7,131.1,97.5,131.6,97.2z M155.6,75.7L155.6,75.7l0.7-1.2c0.6,0.2,1.3,0.3,2,0.3
		c0.7,0,1.3-0.1,2-0.2l0,0c1.1-0.2,2.1-0.7,2.9-1.5c0.8-0.8,1.4-1.8,1.7-2.9c0.4-1.4,0.5-2.8,0.4-4.2l0,0c0-1.2-0.3-2.5-0.8-3.6
		c-0.4-0.8-1-1.4-1.7-1.8c-0.7-0.3-1.5-0.4-2.3-0.2l0,0c-0.6,0.1-1.1,0.4-1.5,0.8c-0.3,0.4-0.5,1-0.5,1.5l0,0c0,0.4-0.1,1-0.1,1.8
		c0,0.9-0.1,1.9-0.1,3.1l-0.2,3.8c-0.1,1.4-0.1,2.7-0.2,4.1c-0.1,1.3-0.1,2.6-0.1,3.8c0,1.2-0.1,2.2-0.1,3.1c0,0.9,0,1.5,0,1.9l0,0
		c0,0.2,0,0.5,0.2,0.7c0.2,0.1,0.4,0.2,0.6,0.2l0,0l1.2,0c0.2,0,0.3,0.1,0.5,0.2c0.1,0.1,0.2,0.2,0.2,0.4l0,0c0.1,0.2,0,0.4-0.1,0.6
		c-0.2,0.2-0.4,0.3-0.6,0.3l0,0l-10,2.2c-0.2,0.1-0.4,0.1-0.7,0c-0.1-0.1-0.2-0.2-0.3-0.4l0,0c0-0.2,0-0.4,0.1-0.5
		c0.1-0.2,0.2-0.3,0.4-0.4l0,0l1.2-0.5c0.2-0.1,0.4-0.3,0.5-0.5c0.1-0.3,0.2-0.5,0.2-0.8l0,0c0-0.3,0-0.9,0.1-1.8
		c0-0.9,0.1-1.9,0.1-3.1l0.2-3.9c0.1-1.4,0.1-2.8,0.2-4.2l0.2-3.9c0-1.2,0.1-2.3,0.1-3.1s0-1.4,0-1.8l0,0c0-0.3,0-0.6-0.1-0.9
		c-0.1-0.2-0.3-0.3-0.6-0.3l0,0l-1.2,0c-0.2,0-0.3-0.1-0.4-0.2c-0.1-0.1-0.2-0.2-0.2-0.3l0,0c0-0.2,0-0.4,0.1-0.6
		c0.2-0.2,0.4-0.3,0.6-0.3l0,0l11.1-2.5c1.8-0.4,3.6-0.5,5.4-0.1c1.4,0.3,2.7,1,3.7,2.2c0.9,1.2,1.4,2.7,1.4,4.2l0,0
		c0.1,1.6-0.3,3.2-1.1,4.6c-0.9,1.5-2.1,2.8-3.6,3.7c-1.8,1.1-3.7,1.9-5.7,2.3l0,0c-1.1,0.3-2.1,0.4-3.2,0.4
		C157.2,76,156.4,75.9,155.6,75.7L155.6,75.7z M164.1,82.7l-3.6-7.1l5.8-2.3l3.3,5.7c0.2,0.3,0.4,0.7,0.7,1c0.2,0.2,0.4,0.4,0.7,0.5
		c0.2,0.1,0.4,0.1,0.6,0l0,0c0.3-0.1,0.5-0.2,0.7-0.4c0.2-0.3,0.4-0.6,0.6-0.9l0,0c0.1-0.1,0.1-0.2,0.2-0.3c0.1-0.1,0.2-0.1,0.3-0.1
		l0,0c0.2,0,0.3,0.1,0.4,0.2c0.1,0.2,0.1,0.4,0,0.6l0,0c-0.3,1.3-0.9,2.5-1.9,3.5c-1,1-2.2,1.6-3.5,1.9l0,0c-0.6,0.1-1.2,0.2-1.7,0
		c-0.5-0.1-1-0.4-1.4-0.8C164.8,83.9,164.4,83.3,164.1,82.7L164.1,82.7z M189.6,65.9L189.6,65.9c1.6,0,3.1,0.5,4.5,1.3
		c1.2,0.7,2.1,1.8,2.6,3.2c0.5,1.5,0.6,3.1,0.2,4.7l0,0c-0.3,1.3-0.7,2.6-1.4,3.8c-0.6,1.1-1.5,2.1-2.5,2.9c-1,0.8-2.2,1.4-3.4,1.8
		c-1.4,0.4-2.8,0.6-4.2,0.5l0,0c-1.6,0-3.1-0.5-4.4-1.3c-1.2-0.7-2.1-1.8-2.6-3.2c-0.5-1.5-0.6-3.1-0.3-4.7l0,0
		c0.3-1.3,0.7-2.6,1.4-3.8c0.6-1.1,1.5-2.1,2.5-2.9c1-0.8,2.2-1.4,3.4-1.8C186.8,65.9,188.2,65.8,189.6,65.9z M185.4,82.4
		L185.4,82.4c0.5,0,0.9-0.1,1.2-0.4c0.5-0.4,0.9-0.9,1.2-1.4c0.4-0.7,0.8-1.4,1.2-2.2c0.4-0.9,0.7-1.7,1-2.6
		c0.3-0.9,0.5-1.9,0.7-2.9l0,0c0.2-1,0.4-1.9,0.4-2.9c0-0.6-0.1-1.2-0.4-1.8c-0.2-0.4-0.6-0.7-1-0.7l0,0c-0.5,0-0.9,0.1-1.2,0.4
		c-0.5,0.4-0.9,0.9-1.2,1.4c-0.4,0.7-0.8,1.4-1.2,2.2c-0.4,0.9-0.7,1.8-1,2.7c-0.3,1-0.5,1.9-0.7,2.9l0,0c-0.2,1-0.4,1.9-0.4,2.9
		c0,0.6,0.1,1.2,0.4,1.8C184.6,82.1,185,82.3,185.4,82.4z M205.5,85.4L205.5,85.4c1.1,0.3,2.3-0.3,2.6-1.4c0,0,0-0.1,0-0.1l0,0
		c0.1-0.4,0.1-0.8,0-1.2c-0.1-0.5-0.3-0.9-0.6-1.3c-0.4-0.6-0.9-1.2-1.4-1.8l0,0c-0.6-0.7-1.2-1.5-1.7-2.3c-0.4-0.6-0.7-1.3-0.8-2
		c-0.1-0.7,0-1.3,0.2-2l0,0c0.3-1,0.9-1.9,1.8-2.5c1-0.7,2.1-1.2,3.3-1.3c1.5-0.2,3.1-0.1,4.6,0.4l0,0c1.2,0.3,2.3,0.8,3.3,1.4
		c0.7,0.5,1.3,1.1,1.7,1.9c0.3,0.7,0.4,1.4,0.2,2.1l0,0c-0.1,0.6-0.4,1.1-0.9,1.5c-0.4,0.3-0.9,0.4-1.4,0.2l0,0
		c-0.5-0.1-1-0.5-1.3-0.9c-0.4-0.7-0.5-1.5-0.5-2.3l0,0c0-0.7-0.2-1.4-0.6-1.9c-0.3-0.5-0.8-0.8-1.3-0.9l0,0
		c-0.6-0.2-1.2-0.1-1.7,0.2c-0.5,0.3-0.9,0.8-1,1.4l0,0c-0.1,0.4-0.1,0.8-0.1,1.3c0.1,0.5,0.3,1.1,0.6,1.5c0.5,0.8,1,1.5,1.6,2.2
		l0,0c0.6,0.7,1.2,1.5,1.7,2.3c0.4,0.6,0.6,1.2,0.7,1.9c0.1,0.6,0,1.2-0.2,1.8l0,0c-0.3,1-1,1.8-1.9,2.4c-1,0.6-2.2,1-3.3,1
		c-1.5,0.1-2.9-0.1-4.4-0.5l0,0c-1.3-0.3-2.5-0.8-3.6-1.6c-0.8-0.5-1.4-1.2-1.7-2.1c-0.3-0.7-0.3-1.5-0.1-2.2l0,0
		c0.1-0.5,0.4-1,0.9-1.4c0.4-0.3,0.9-0.4,1.4-0.2l0,0c0.6,0.1,1.1,0.5,1.4,1c0.3,0.7,0.5,1.5,0.5,2.3l0,0c0,0.7,0.3,1.4,0.7,2.1
		C204.5,84.9,204.9,85.2,205.5,85.4L205.5,85.4z M240.2,85.9l-6.3,6.7c-0.5,0.5-0.9,1.1-1.3,1.7c-0.1,0.4,0,0.6,0.2,0.7l0,0
		c0.2,0.1,0.5,0.1,0.7,0.1c0.4-0.1,0.8-0.2,1.1-0.3l0,0c0.2-0.1,0.4-0.1,0.6-0.1c0.1,0,0.2,0.1,0.3,0.2l0,0c0.1,0.1,0.1,0.3,0,0.4
		c-0.1,0.2-0.3,0.4-0.6,0.6l0,0c-1,0.6-2.1,1-3.2,1c-1.2,0.1-2.5-0.2-3.5-0.8l0,0c-0.7-0.3-1.2-0.9-1.5-1.6c-0.1-0.7,0-1.3,0.4-1.9
		l0,0c0.1-0.3,0.3-0.5,0.5-0.8c0.2-0.3,0.4-0.6,0.7-0.9c0.3-0.3,0.6-0.7,0.9-1c0.3-0.4,0.7-0.7,1.1-1.1l0,0l0,0.8
		c-1,0.9-2.1,1.7-3.4,2.2c-1.1,0.5-2.2,0.8-3.4,0.8c-1.1,0-2.2-0.3-3.2-0.8l0,0c-1.2-0.6-2.1-1.7-2.4-3c-0.2-1.5,0.3-3.1,1.2-4.3
		l0,0c0.7-1.1,1.5-2,2.5-2.8c1-0.8,2.1-1.5,3.3-2c1.2-0.5,2.5-0.9,3.9-1c2.9-0.3,5.8,0.2,8.4,1.7l0,0c1,0.6,2,1.2,3,1.9
		c0.6,0.5,1.2,1.1,1.7,1.7c0.3,0.5,0.4,0.9,0.2,1.1l0,0c-0.1,0.2-0.3,0.3-0.6,0.4c-0.2,0-0.4,0-0.7,0
		C240.6,85.6,240.4,85.7,240.2,85.9L240.2,85.9z M224.5,87.8L224.5,87.8c-0.5,0.6-0.8,1.3-0.9,2.1c0,0.4,0.1,0.8,0.5,1l0,0
		c0.4,0.2,0.9,0.2,1.3,0.1c0.6-0.1,1.3-0.4,1.8-0.7c0.8-0.4,1.5-0.9,2.2-1.5c0.9-0.7,1.7-1.4,2.5-2.2c0.9-0.8,1.8-1.8,2.7-2.9l0,0
		c0.5-0.5,0.8-1,1.1-1.7c0.1-0.4,0-0.8-0.4-1l0,0c-0.6-0.3-1.2-0.4-1.8-0.2c-0.8,0.1-1.6,0.4-2.3,0.8c-0.9,0.5-1.7,1-2.5,1.6
		c-0.8,0.6-1.6,1.4-2.4,2.1C225.7,86.1,225.1,86.9,224.5,87.8L224.5,87.8z"/>
</g>
</svg>
