<svg xmlns="http://www.w3.org/2000/svg" width="147.364" height="147.365" viewBox="0 0 147.364 147.365">
  <g id="_10625253481582634786" data-name="10625253481582634786" transform="translate(-0.001)">
    <path id="Path_147" data-name="Path 147" d="M141.8,5.565A18.189,18.189,0,0,0,128.467,0H18.9A18.193,18.193,0,0,0,5.566,5.565,18.187,18.187,0,0,0,0,18.9V128.464A18.189,18.189,0,0,0,5.566,141.8,18.2,18.2,0,0,0,18.9,147.365H128.466a19,19,0,0,0,18.9-18.9V18.9A18.188,18.188,0,0,0,141.8,5.565ZM52.914,53.1a28.951,28.951,0,0,1,20.867-8.395A29.069,29.069,0,0,1,94.743,53.1a27.189,27.189,0,0,1,8.682,20.292,27.183,27.183,0,0,1-8.682,20.29,29.058,29.058,0,0,1-20.962,8.4,28.955,28.955,0,0,1-20.867-8.4,27.186,27.186,0,0,1-8.684-20.29A27.191,27.191,0,0,1,52.914,53.1Zm77.76,71.429a5.59,5.59,0,0,1-1.728,4.172,5.718,5.718,0,0,1-4.127,1.679H22.26a5.737,5.737,0,0,1-5.853-5.851V62.36H29.935a41.313,41.313,0,0,0-1.918,12.568,42.13,42.13,0,0,0,13.431,31.423,44.829,44.829,0,0,0,32.333,13A46.118,46.118,0,0,0,96.808,113.4,44.8,44.8,0,0,0,113.5,97.235a42.511,42.511,0,0,0,6.141-22.306,41.319,41.319,0,0,0-1.92-12.568h12.953v62.172h0Zm0-85.677a6.556,6.556,0,0,1-6.622,6.62H107.359a6.552,6.552,0,0,1-6.619-6.62V23.026a6.441,6.441,0,0,1,1.918-4.653,6.317,6.317,0,0,1,4.7-1.967h16.693a6.311,6.311,0,0,1,4.7,1.967,6.436,6.436,0,0,1,1.921,4.653Z" transform="translate(0)" fill="#8a72a3"/>
  </g>
</svg>
