<svg xmlns="http://www.w3.org/2000/svg" width="177.222" height="145" viewBox="0 0 177.222 145">
  <path id="list" d="M2.5,140.444a8.056,8.056,0,0,1,8.056-8.056H171.667a8.056,8.056,0,1,1,0,16.111H10.556A8.056,8.056,0,0,1,2.5,140.444ZM2.5,76a8.056,8.056,0,0,1,8.056-8.056H171.667a8.056,8.056,0,1,1,0,16.111H10.556A8.056,8.056,0,0,1,2.5,76Zm0-64.444A8.056,8.056,0,0,1,10.556,3.5H171.667a8.056,8.056,0,1,1,0,16.111H10.556A8.056,8.056,0,0,1,2.5,11.556Z" transform="translate(-2.5 -3.5)" fill="#8a72a3" fill-rule="evenodd"/>
</svg>
