<svg xmlns="http://www.w3.org/2000/svg" width="167.034" height="167.037" viewBox="0 0 167.034 167.037">
  <g id="_7211715581582863585" data-name="7211715581582863585" transform="translate(-0.003)">
    <path id="Path_148" data-name="Path 148" d="M157.849,9.188A30.161,30.161,0,0,0,135.721,0H31.322A30.172,30.172,0,0,0,9.191,9.188,30.171,30.171,0,0,0,0,31.319v104.4a30.172,30.172,0,0,0,9.188,22.131,30.168,30.168,0,0,0,22.131,9.189h104.4a31.375,31.375,0,0,0,31.318-31.32V31.319A30.172,30.172,0,0,0,157.849,9.188ZM127.781,64.271a28.834,28.834,0,0,1,.11,2.937,65.8,65.8,0,0,1-10.822,35.941,68.541,68.541,0,0,1-13.1,14.9A58.815,58.815,0,0,1,85.7,128.375a66.487,66.487,0,0,1-22.836,3.863,64.088,64.088,0,0,1-35.016-10.222,44.068,44.068,0,0,0,5.437.326,45.117,45.117,0,0,0,28.384-9.789,21.668,21.668,0,0,1-13.213-4.567,23.21,23.21,0,0,1-8.1-11.309,30.621,30.621,0,0,0,4.24.433,21.256,21.256,0,0,0,5.546-.868,22.845,22.845,0,0,1-13.375-7.883,21.715,21.715,0,0,1-5.438-14.517v-.217A26.966,26.966,0,0,0,42.2,76.451q-9.9-6.635-9.9-19.031a22.617,22.617,0,0,1,3.153-11.527A64.73,64.73,0,0,0,56.335,62.748a64.655,64.655,0,0,0,26.317,7.069,20.99,20.99,0,0,1-.544-5.22,22.837,22.837,0,0,1,22.836-22.839,21.706,21.706,0,0,1,16.641,7.178,45.426,45.426,0,0,0,14.573-5.546,22.206,22.206,0,0,1-10.113,12.723,48.41,48.41,0,0,0,13.155-3.7A44.412,44.412,0,0,1,127.781,64.271Z" fill="#8a72a3"/>
  </g>
</svg>
