<svg id="Page-1" xmlns="http://www.w3.org/2000/svg" width="189" height="189" viewBox="0 0 189 189">
  <g id="Social-Icons---Rounded">
    <g id="Whatsapp">
      <path id="Rounded" d="M21,189H168a21,21,0,0,0,21-21V21A21,21,0,0,0,168,0H21A21,21,0,0,0,0,21V168A21,21,0,0,0,21,189Z" fill="#8a72a3" fill-rule="evenodd"/>
      <path id="Path_149" data-name="Path 149" d="M74.982,12h.037A63,63,0,1,1,40.362,127.593l-24.215,7.739L24,111.926A62.958,62.958,0,0,1,74.982,12ZM57.394,44c-1.222-2.926-2.147-3.037-4-3.112-.63-.037-1.332-.073-2.111-.073a9.139,9.139,0,0,0-6.443,2.259A20.117,20.117,0,0,0,38.4,58.408c0,9.037,6.591,17.778,7.479,19,.926,1.221,12.849,20.036,31.362,27.7,14.477,6,18.773,5.444,22.068,4.74,4.813-1.037,10.849-4.594,12.367-8.889s1.518-7.964,1.073-8.742-1.667-1.221-3.517-2.148S98.382,84.7,96.679,84.111a3.515,3.515,0,0,0-4.516,1.371A77.248,77.248,0,0,1,87.237,92a3.98,3.98,0,0,1-4.443.7A46.428,46.428,0,0,1,68.02,83.593,56.056,56.056,0,0,1,57.8,70.891c-1.074-1.851-.111-2.927.74-3.926.926-1.149,1.814-1.963,2.74-3.038a11.041,11.041,0,0,0,2.037-2.889,3.758,3.758,0,0,0-.259-3.408C62.614,56.7,58.912,47.667,57.394,44Z" transform="translate(19.5 19.5)" fill="#fff" fill-rule="evenodd"/>
    </g>
  </g>
</svg>
