<svg xmlns="http://www.w3.org/2000/svg" width="186.037" height="186.037" viewBox="0 0 186.037 186.037">
  <path id="instagram_1_" data-name="instagram (1)" d="M93.019,0C67.776,0,64.6.116,54.683.558c-9.918.465-16.674,2.023-22.592,4.325A45.544,45.544,0,0,0,15.616,15.616,45.661,45.661,0,0,0,4.883,32.091C2.581,38,1.012,44.765.558,54.648.116,64.59,0,67.752,0,93.03c0,25.255.116,28.417.558,38.335.465,9.906,2.023,16.662,4.325,22.58a47.621,47.621,0,0,0,27.2,27.208c5.93,2.3,12.674,3.872,22.58,4.325,9.93.442,13.092.558,38.359.558s28.417-.116,38.347-.558c9.895-.465,16.674-2.023,22.592-4.325a47.621,47.621,0,0,0,27.2-27.208c2.291-5.918,3.86-12.674,4.325-22.58.442-9.918.558-13.081.558-38.347s-.116-28.429-.558-38.359c-.465-9.895-2.035-16.662-4.325-22.569a45.649,45.649,0,0,0-10.732-16.476A45.474,45.474,0,0,0,153.946,4.883c-5.93-2.3-12.7-3.872-22.592-4.325C121.424.116,118.273,0,93,0h.035ZM84.682,16.767H93.03c24.836,0,27.778.081,37.58.535,9.069.407,14,1.93,17.278,3.2a28.86,28.86,0,0,1,10.7,6.965,28.739,28.739,0,0,1,6.953,10.7c1.279,3.267,2.791,8.2,3.2,17.267.453,9.8.546,12.744.546,37.568s-.093,27.778-.546,37.58c-.407,9.069-1.93,13.988-3.2,17.267a30.83,30.83,0,0,1-17.662,17.639c-3.256,1.279-8.186,2.791-17.267,3.209-9.8.442-12.744.546-37.58.546s-27.789-.1-37.591-.546c-9.069-.419-13.988-1.93-17.267-3.209a28.813,28.813,0,0,1-10.7-6.953,28.836,28.836,0,0,1-6.976-10.7c-1.267-3.267-2.791-8.2-3.2-17.267-.442-9.8-.535-12.744-.535-37.591S16.86,65.206,17.3,55.4c.419-9.069,1.93-14,3.209-17.278a28.861,28.861,0,0,1,6.965-10.7,28.74,28.74,0,0,1,10.7-6.953c3.279-1.279,8.2-2.791,17.267-3.209,8.581-.4,11.906-.512,29.243-.523v.023Zm58,15.441A11.162,11.162,0,1,0,153.841,43.37,11.162,11.162,0,0,0,142.679,32.208ZM93.03,45.254a47.774,47.774,0,1,0,47.777,47.774A47.768,47.768,0,0,0,93.03,45.254Zm0,16.755a31.01,31.01,0,1,1-31.01,31.01A31.01,31.01,0,0,1,93.03,62.009Z" fill="#8a72a3"/>
</svg>
