<svg xmlns="http://www.w3.org/2000/svg" width="213.534" height="214.5" viewBox="0 0 213.534 214.5">
  <path id="whatsapp_1_" data-name="whatsapp (1)" d="M182.338,31.183A105.292,105.292,0,0,0,107.169,0,106.368,106.368,0,0,0,15.028,159.414L0,214.5l56.36-14.774a106.351,106.351,0,0,0,50.81,12.937h.054c58.558,0,106.258-47.7,106.311-106.311a105.882,105.882,0,0,0-31.21-75.169ZM107.169,194.672a88.119,88.119,0,0,1-44.991-12.334l-3.217-1.93-33.435,8.768,8.929-32.617-2.091-3.365a88.31,88.31,0,1,1,74.807,41.479Zm48.463-66.146c-2.641-1.327-15.685-7.749-18.139-8.66-2.44-.871-4.223-1.327-5.966,1.327-1.783,2.641-6.877,8.66-8.406,10.39-1.528,1.783-3.11,1.984-5.765.67-2.641-1.341-11.208-4.129-21.343-13.205a81.05,81.05,0,0,1-14.787-18.393c-1.528-2.654-.147-4.075,1.18-5.4,1.166-1.18,2.641-3.11,3.968-4.639a16.95,16.95,0,0,0,2.654-4.424,4.944,4.944,0,0,0-.2-4.652c-.67-1.327-5.966-14.425-8.2-19.707-2.145-5.215-4.33-4.491-5.966-4.558-1.528-.094-3.311-.094-5.094-.094a9.773,9.773,0,0,0-7.092,3.311c-2.44,2.654-9.264,9.076-9.264,22.174s9.518,25.686,10.859,27.469c1.314,1.783,18.688,28.582,45.353,40.111a147.751,147.751,0,0,0,15.136,5.6,36.484,36.484,0,0,0,16.7,1.072c5.094-.778,15.7-6.435,17.938-12.642,2.2-6.22,2.2-11.529,1.528-12.642s-2.44-1.783-5.094-3.11Z" fill="#8a72a3"/>
</svg>
